<svg width="16" height="12" viewBox="0 0 16 12" fill="none" xmlns="http://www.w3.org/2000/svg">
<path d="M1.7821 7.97417L2.08522 10.6706C2.08929 10.7098 2.09744 10.7485 2.10966 10.786C2.34936 11.5278 3.03532 12 3.77073 12C3.94993 12 4.13088 11.9719 4.31007 11.9133C5.22469 11.6133 5.72737 10.6196 5.42948 9.69794L4.94658 8.20327H5.09843L9.63018 10.4854C9.7128 10.5264 9.80123 10.5469 9.89025 10.5469C9.99672 10.5469 10.1026 10.5176 10.1957 10.4596C10.3679 10.353 10.4726 10.1643 10.4726 9.96101V7.53415C11.4739 7.27224 12.2181 6.36232 12.2181 5.27368C12.2181 4.18505 11.4739 3.27512 10.4726 3.01322V0.586355C10.4726 0.383042 10.3679 0.194963 10.1963 0.0877399C10.0246 -0.0194827 9.81054 -0.0288575 9.63018 0.0619595L5.09901 2.3441H2.90907C1.30501 2.3441 0 3.65831 0 5.27368C0 6.48712 0.735994 7.53005 1.7821 7.97417ZM4.32288 10.0606C4.42237 10.3676 4.25538 10.6987 3.94993 10.7989C3.65961 10.8944 3.3495 10.7467 3.23372 10.4696L2.9783 8.20327H3.72244L4.32288 10.0606ZM11.0545 5.27368C11.0545 5.7055 10.8188 6.07932 10.4726 6.28263V4.26532C10.8188 4.46805 11.0545 4.84186 11.0545 5.27368Z" fill="#BDBDBD"/>
<path d="M14.2546 5.33521H15.4182C15.7399 5.33521 16 5.07272 16 4.74929C16 4.42587 15.7399 4.16338 15.4182 4.16338H14.2546C13.9328 4.16338 13.6727 4.42587 13.6727 4.74929C13.6727 5.07272 13.9328 5.33521 14.2546 5.33521Z" fill="#BDBDBD"/>
<path d="M14.2547 2.23394C14.4036 2.23394 14.5526 2.17653 14.666 2.06227L15.4887 1.23379C15.7162 1.00469 15.7162 0.634394 15.4887 0.405301C15.2612 0.176207 14.8935 0.176207 14.666 0.405301L13.8434 1.23379C13.6159 1.46288 13.6159 1.83318 13.8434 2.06227C13.9568 2.17711 14.1058 2.23394 14.2547 2.23394Z" fill="#BDBDBD"/>
<path d="M14.666 9.09327C14.7795 9.20752 14.9284 9.26494 15.0774 9.26494C15.2263 9.26494 15.3753 9.20752 15.4887 9.09327C15.7162 8.86417 15.7162 8.49387 15.4887 8.26478L14.666 7.43629C14.4386 7.2072 14.0709 7.2072 13.8434 7.43629C13.6159 7.66539 13.6159 8.03569 13.8434 8.26478L14.666 9.09327Z" fill="#BDBDBD"/>
</svg>
