<svg width="18" height="16" viewBox="0 0 18 16" fill="none" xmlns="http://www.w3.org/2000/svg">
<path fill-rule="evenodd" clip-rule="evenodd" d="M0.541866 10.5379C0.589185 10.4418 0.672253 10.3686 0.772797 10.3346C0.873341 10.3005 0.983125 10.3083 1.078 10.3562L1.53778 10.5885C1.02982 9.08584 0.975523 7.46383 1.38182 5.92972C2.50885 1.66921 6.84664 -0.868146 11.0516 0.2735C12.3694 0.630924 13.5734 1.3282 14.5461 2.29735C14.5835 2.33469 14.6132 2.37913 14.6336 2.42813C14.6541 2.47713 14.6648 2.52973 14.6652 2.58292C14.6655 2.63611 14.6556 2.68885 14.6358 2.73814C14.6161 2.78743 14.5869 2.83229 14.5501 2.87017C14.5132 2.90804 14.4693 2.9382 14.421 2.9589C14.3726 2.9796 14.3207 2.99045 14.2682 2.99083C14.2157 2.9912 14.1636 2.9811 14.115 2.96109C14.0664 2.94108 14.0221 2.91156 13.9847 2.87422C12.8513 1.74447 11.3762 1.03313 9.79599 0.854318C8.21583 0.675501 6.62218 1.03956 5.27065 1.8881C3.91912 2.73665 2.88804 4.0205 2.34278 5.53374C1.79752 7.04698 1.76969 8.70191 2.26374 10.2331L2.38836 9.81031C2.4034 9.75933 2.4282 9.71185 2.46135 9.67058C2.4945 9.62931 2.53535 9.59506 2.58157 9.56979C2.62778 9.54451 2.67846 9.52871 2.7307 9.52328C2.78295 9.51785 2.83574 9.52289 2.88606 9.53813C2.93637 9.55337 2.98324 9.5785 3.02397 9.61209C3.0647 9.64568 3.09851 9.68707 3.12345 9.73389C3.1484 9.78071 3.164 9.83206 3.16936 9.88499C3.17472 9.93792 3.16973 9.99141 3.15469 10.0424L2.70816 11.5548C2.68359 11.6383 2.63309 11.7116 2.56416 11.7637C2.49523 11.8158 2.41154 11.844 2.32554 11.8441C2.26352 11.844 2.20236 11.8295 2.14679 11.8016L0.721359 11.0813C0.674363 11.0576 0.632442 11.0247 0.597994 10.9846C0.563546 10.9444 0.537247 10.8978 0.520603 10.8474C0.503958 10.7969 0.497294 10.7436 0.500992 10.6906C0.50469 10.6375 0.518676 10.5857 0.542152 10.5381L0.541866 10.5379ZM14.8453 5.92468C14.8291 5.97597 14.8231 6.03002 14.8277 6.08367C14.8324 6.13733 14.8475 6.18951 14.8723 6.23716C14.8971 6.28481 14.931 6.32697 14.972 6.36119C15.0131 6.3954 15.0605 6.42097 15.1114 6.43641C15.1623 6.45185 15.2158 6.45684 15.2686 6.45109C15.3215 6.44534 15.3727 6.42897 15.4192 6.40294C15.4657 6.3769 15.5067 6.34173 15.5396 6.29947C15.5726 6.25721 15.5969 6.20871 15.6111 6.15682L15.7391 5.72402C16.2441 7.2586 16.2236 8.92089 15.681 10.4422C15.1383 11.9636 14.1052 13.255 12.7485 14.108C11.3919 14.9609 9.79102 15.3254 8.20464 15.1426C6.61826 14.9598 5.13906 14.2404 4.00612 13.1005C3.93099 13.0247 3.82921 12.9823 3.72318 12.9825C3.61715 12.9827 3.51554 13.0256 3.44072 13.1017C3.3659 13.1779 3.32399 13.281 3.32421 13.3884C3.32443 13.4958 3.36676 13.5988 3.44189 13.6746C4.92184 15.1624 6.92168 15.9981 9.00654 16C12.4919 16 15.6906 13.6399 16.6345 10.0703C17.0437 8.52603 16.986 6.89284 16.4689 5.38212L16.9217 5.61102C17.0166 5.65898 17.1264 5.6668 17.227 5.63274C17.3275 5.59868 17.4106 5.52555 17.4579 5.42943C17.5053 5.3333 17.513 5.22206 17.4794 5.12017C17.4458 5.01829 17.3736 4.93411 17.2787 4.88614L15.8526 4.16572C15.8005 4.13939 15.7433 4.12493 15.685 4.12335C15.6268 4.12178 15.5689 4.13312 15.5154 4.15659C15.462 4.18006 15.4142 4.21509 15.3755 4.25922C15.3368 4.30336 15.3081 4.35553 15.2914 4.41209L14.8453 5.92457L14.8453 5.92468ZM11.239 5.16596C11.2391 4.72073 11.1089 4.28548 10.8648 3.91524C10.6207 3.54501 10.2737 3.25642 9.86775 3.08598C9.46179 2.91553 9.01505 2.87088 8.58404 2.95767C8.15303 3.04447 7.75709 3.2588 7.44631 3.57358C7.13553 3.88836 6.92386 4.28944 6.83806 4.7261C6.75226 5.16276 6.7962 5.61539 6.9643 6.02676C7.13241 6.43812 7.41713 6.78974 7.78248 7.03716C8.14783 7.28457 8.57738 7.41667 9.01682 7.41673C9.60589 7.41615 10.1707 7.17885 10.5873 6.7569C11.0039 6.33494 11.2383 5.76279 11.239 5.16596ZM5.04276 11.2057C5.02197 11.3716 5.0363 11.5401 5.08477 11.6999C5.13325 11.8598 5.21476 12.0073 5.3239 12.1327C5.43303 12.2582 5.56728 12.3586 5.71771 12.4274C5.86814 12.4962 6.03131 12.5317 6.19635 12.5317H11.8379C12.0029 12.5316 12.166 12.496 12.3164 12.4271C12.4667 12.3583 12.6009 12.2579 12.71 12.1325C12.8191 12.0071 12.9007 11.8596 12.9492 11.6998C12.9977 11.54 13.0121 11.3716 12.9915 11.2058C12.8684 10.2259 12.3968 9.32516 11.6651 8.67229C10.9335 8.01942 9.992 7.65925 9.01705 7.65925C8.0421 7.65925 7.1006 8.01942 6.36896 8.67229C5.63732 9.32516 5.16574 10.2259 5.04259 11.2058L5.04276 11.2057Z" fill="#BDBDBD"/>
</svg>
