<svg width="18" height="19" viewBox="0 0 18 19" fill="none" xmlns="http://www.w3.org/2000/svg">
<path d="M6.75 13.8125C6.675 13.8125 6.6075 13.7975 6.5325 13.7675C6.3225 13.685 6.1875 13.475 6.1875 13.25V8.75C6.1875 8.4425 6.4425 8.1875 6.75 8.1875C7.0575 8.1875 7.3125 8.4425 7.3125 8.75V11.8925L7.8525 11.3525C8.07 11.135 8.43 11.135 8.6475 11.3525C8.865 11.57 8.865 11.93 8.6475 12.1475L7.1475 13.6475C7.0425 13.7525 6.8925 13.8125 6.75 13.8125Z" fill="#8998B8"/>
<path d="M6.74813 13.8126C6.60563 13.8126 6.46313 13.7601 6.35063 13.6476L4.85063 12.1476C4.63313 11.9301 4.63313 11.5701 4.85063 11.3526C5.06813 11.1351 5.42813 11.1351 5.64563 11.3526L7.14562 12.8526C7.36312 13.0701 7.36312 13.4301 7.14562 13.6476C7.03312 13.7601 6.89063 13.8126 6.74813 13.8126Z" fill="#8998B8"/>
<path d="M11.25 17.5625H6.75C2.6775 17.5625 0.9375 15.8225 0.9375 11.75V7.25C0.9375 3.1775 2.6775 1.4375 6.75 1.4375H10.5C10.8075 1.4375 11.0625 1.6925 11.0625 2C11.0625 2.3075 10.8075 2.5625 10.5 2.5625H6.75C3.2925 2.5625 2.0625 3.7925 2.0625 7.25V11.75C2.0625 15.2075 3.2925 16.4375 6.75 16.4375H11.25C14.7075 16.4375 15.9375 15.2075 15.9375 11.75V8C15.9375 7.6925 16.1925 7.4375 16.5 7.4375C16.8075 7.4375 17.0625 7.6925 17.0625 8V11.75C17.0625 15.8225 15.3225 17.5625 11.25 17.5625Z" fill="#8998B8"/>
<path d="M16.5 8.56261H13.5C10.935 8.56261 9.9375 7.56511 9.9375 5.00011V2.00011C9.9375 1.77511 10.0725 1.56511 10.2825 1.48261C10.4925 1.39261 10.7325 1.44511 10.8975 1.60261L16.8975 7.60261C17.055 7.76011 17.1075 8.00761 17.0175 8.21761C16.9275 8.42761 16.725 8.56261 16.5 8.56261ZM11.0625 3.35761V5.00011C11.0625 6.93511 11.565 7.43761 13.5 7.43761H15.1425L11.0625 3.35761Z" fill="#8998B8"/>
</svg>
