<svg width="16" height="16" viewBox="0 0 16 16" fill="none" xmlns="http://www.w3.org/2000/svg">
<path fill-rule="evenodd" clip-rule="evenodd" d="M5.03807 0.592578C5.03807 0.265306 5.30338 0 5.63065 0C5.95792 0 6.22323 0.265306 6.22323 0.592578V1.18573H9.77753V0.592578C9.77753 0.265306 10.0428 0 10.3701 0C10.6974 0 10.9627 0.265306 10.9627 0.592578V1.18573H12.4082C14.0651 1.18573 15.4082 2.52888 15.4082 4.18573V13.0001C15.4082 14.657 14.0651 16.0001 12.4082 16.0001H3.59375C1.9369 16.0001 0.59375 14.657 0.59375 13.0001V4.18573C0.59375 2.52887 1.9369 1.18573 3.59375 1.18573H5.03807V0.592578ZM5.03807 2.37165H4.07461C2.97004 2.37165 2.07461 3.26708 2.07461 4.37165V5.63082H13.9262V4.37165C13.9262 3.26708 13.0307 2.37165 11.9262 2.37165H10.9627V2.66659C10.9627 2.99386 10.6974 3.25917 10.3701 3.25917C10.0428 3.25917 9.77753 2.99386 9.77753 2.66659V2.37165H6.22323V2.66659C6.22323 2.99386 5.95792 3.25917 5.63065 3.25917C5.30338 3.25917 5.03807 2.99386 5.03807 2.66659V2.37165ZM8.74658 7.72796C8.74722 8.06147 8.47739 8.33235 8.14389 8.333C7.54214 8.33418 6.9613 8.55388 6.50941 8.95125C6.05752 9.34862 5.76535 9.8966 5.68725 10.4933C5.60915 11.0899 5.75043 11.6946 6.08481 12.1949C6.41919 12.6952 6.92391 13.057 7.50509 13.213C8.08626 13.3691 8.70433 13.3087 9.24431 13.0431C9.78429 12.7775 10.2094 12.3249 10.4406 11.7693C10.6718 11.2137 10.6934 10.5931 10.5013 10.0229C10.3091 9.45261 9.91643 8.97156 9.39617 8.66918C9.10782 8.50159 9.00993 8.13199 9.17752 7.84365C9.3451 7.55531 9.7147 7.45741 10.003 7.625C10.7764 8.07448 11.3602 8.78958 11.6458 9.63727C11.9314 10.485 11.8994 11.4075 11.5557 12.2334C11.212 13.0592 10.58 13.7321 9.77731 14.1268C8.97463 14.5216 8.05588 14.6114 7.19196 14.3795C6.32804 14.1475 5.57777 13.6097 5.08071 12.866C4.58365 12.1224 4.37363 11.2234 4.48973 10.3365C4.60584 9.44956 5.04015 8.63499 5.71188 8.0443C6.38361 7.45361 7.24703 7.12702 8.14153 7.12528C8.47504 7.12463 8.74592 7.39446 8.74658 7.72796ZM7.82944 9.04093C8.16295 9.04093 8.43331 9.31129 8.43331 9.64479V10.7437H9.3194C9.65291 10.7437 9.92327 11.0141 9.92327 11.3476C9.92327 11.6811 9.65291 11.9515 9.3194 11.9515H7.82944C7.49594 11.9515 7.22558 11.6811 7.22558 11.3476V9.64479C7.22558 9.31129 7.49594 9.04093 7.82944 9.04093Z" fill="#767485"/>
</svg>
