<svg width="359" height="40" viewBox="0 0 359 40" fill="none" xmlns="http://www.w3.org/2000/svg">
<rect width="359" height="40" rx="5" fill="#131314"/>
<g opacity="0.2">
<mask id="mask0_10852_135436" style="mask-type:alpha" maskUnits="userSpaceOnUse" x="0" y="0" width="359" height="40">
<rect width="359" height="40" rx="5" fill="#767485"/>
</mask>
<g mask="url(#mask0_10852_135436)">
<rect width="16.647" height="145.23" transform="matrix(0.388619 0.904598 -0.496882 0.885317 33.8828 -64.8691)" fill="#767485"/>
<rect width="16.647" height="145.23" transform="matrix(0.388619 0.904598 -0.496882 0.885317 53.377 -64.4434)" fill="#767485"/>
<rect width="16.647" height="145.23" transform="matrix(0.388619 0.904598 -0.496882 0.885317 72.874 -64.0195)" fill="#767485"/>
<rect width="16.647" height="145.23" transform="matrix(0.388619 0.904598 -0.496882 0.885317 92.3682 -63.5947)" fill="#767485"/>
<rect width="16.647" height="145.23" transform="matrix(0.388619 0.904598 -0.496882 0.885317 111.863 -63.1699)" fill="#767485"/>
<rect width="16.647" height="145.23" transform="matrix(0.388619 0.904598 -0.496882 0.885317 131.358 -62.7451)" fill="#767485"/>
<rect width="16.647" height="145.23" transform="matrix(0.388619 0.904598 -0.496882 0.885317 150.854 -62.3213)" fill="#767485"/>
<rect width="16.647" height="145.23" transform="matrix(0.388619 0.904598 -0.496882 0.885317 170.349 -61.8965)" fill="#767485"/>
<rect width="16.647" height="145.23" transform="matrix(0.388619 0.904598 -0.496882 0.885317 189.844 -61.4717)" fill="#767485"/>
<rect width="16.647" height="145.23" transform="matrix(0.388619 0.904598 -0.496882 0.885317 209.169 -61.0518)" fill="#767485"/>
<rect width="16.647" height="145.23" transform="matrix(0.388619 0.904598 -0.496882 0.885317 228.493 -60.6309)" fill="#767485"/>
<rect width="16.647" height="145.23" transform="matrix(0.388619 0.904598 -0.496882 0.885317 247.817 -60.21)" fill="#767485"/>
<rect width="16.647" height="145.23" transform="matrix(0.388619 0.904598 -0.496882 0.885317 267.143 -59.79)" fill="#767485"/>
<rect width="16.647" height="145.23" transform="matrix(0.388619 0.904598 -0.496882 0.885317 286.468 -59.3682)" fill="#767485"/>
<rect width="16.647" height="145.23" transform="matrix(0.388619 0.904598 -0.496882 0.885317 305.792 -58.9473)" fill="#767485"/>
<rect width="16.647" height="145.23" transform="matrix(0.388619 0.904598 -0.496882 0.885317 325.116 -58.5264)" fill="#767485"/>
<rect width="16.647" height="145.23" transform="matrix(0.388619 0.904598 -0.496882 0.885317 344.442 -58.1055)" fill="#767485"/>
<rect width="16.647" height="145.23" transform="matrix(0.388619 0.904598 -0.496882 0.885317 363.767 -57.6846)" fill="#767485"/>
<rect width="16.647" height="145.23" transform="matrix(0.388619 0.904598 -0.496882 0.885317 383.091 -57.2646)" fill="#767485"/>
<rect width="16.647" height="145.23" transform="matrix(0.388619 0.904598 -0.496882 0.885317 402.415 -56.8438)" fill="#767485"/>
<rect width="16.647" height="145.23" transform="matrix(0.388619 0.904598 -0.496882 0.885317 421.739 -56.4219)" fill="#767485"/>
</g>
</g>
</svg>
