<svg width="352" height="40" viewBox="0 0 352 40" fill="none" xmlns="http://www.w3.org/2000/svg">
<rect opacity="0.5" x="0.5" y="0.5" width="351" height="39" rx="4.5" fill="#0094FF" fill-opacity="0.5" stroke="#0094FF" stroke-dasharray="4 2"/>
<path d="M149.62 24C149.428 24 149.28 23.948 149.176 23.844C149.072 23.74 149.02 23.592 149.02 23.4V16.14C149.02 15.948 149.072 15.8 149.176 15.696C149.28 15.592 149.428 15.54 149.62 15.54H151.936C153.32 15.54 154.384 15.904 155.128 16.632C155.88 17.352 156.256 18.396 156.256 19.764C156.256 20.444 156.16 21.048 155.968 21.576C155.776 22.104 155.496 22.548 155.128 22.908C154.76 23.26 154.308 23.532 153.772 23.724C153.244 23.908 152.632 24 151.936 24H149.62ZM150.136 23.052H151.864C152.408 23.052 152.88 22.984 153.28 22.848C153.68 22.712 154.012 22.508 154.276 22.236C154.548 21.964 154.752 21.624 154.888 21.216C155.024 20.8 155.092 20.316 155.092 19.764C155.092 18.668 154.82 17.848 154.276 17.304C153.74 16.76 152.936 16.488 151.864 16.488H150.136V23.052ZM158.525 24.084C158.341 24.084 158.201 24.036 158.105 23.94C158.009 23.844 157.961 23.704 157.961 23.52V18.624C157.961 18.44 158.009 18.304 158.105 18.216C158.201 18.12 158.333 18.072 158.501 18.072C158.669 18.072 158.797 18.12 158.885 18.216C158.981 18.304 159.029 18.44 159.029 18.624V19.548H158.909C159.037 19.068 159.277 18.704 159.629 18.456C159.981 18.208 160.425 18.068 160.961 18.036C161.089 18.028 161.193 18.06 161.273 18.132C161.353 18.196 161.397 18.308 161.405 18.468C161.413 18.62 161.377 18.744 161.297 18.84C161.217 18.928 161.093 18.98 160.925 18.996L160.709 19.008C160.181 19.064 159.773 19.236 159.485 19.524C159.205 19.812 159.065 20.208 159.065 20.712V23.52C159.065 23.704 159.017 23.844 158.921 23.94C158.833 24.036 158.701 24.084 158.525 24.084ZM164.866 24.108C164.29 24.108 163.79 23.984 163.366 23.736C162.942 23.488 162.614 23.136 162.382 22.68C162.15 22.224 162.034 21.688 162.034 21.072C162.034 20.608 162.098 20.192 162.226 19.824C162.362 19.448 162.554 19.128 162.802 18.864C163.05 18.6 163.346 18.4 163.69 18.264C164.042 18.12 164.434 18.048 164.866 18.048C165.442 18.048 165.942 18.172 166.366 18.42C166.79 18.668 167.118 19.02 167.35 19.476C167.582 19.924 167.698 20.456 167.698 21.072C167.698 21.536 167.63 21.956 167.494 22.332C167.366 22.708 167.178 23.028 166.93 23.292C166.682 23.556 166.382 23.76 166.03 23.904C165.686 24.04 165.298 24.108 164.866 24.108ZM164.866 23.244C165.218 23.244 165.522 23.16 165.778 22.992C166.042 22.824 166.242 22.58 166.378 22.26C166.522 21.94 166.594 21.544 166.594 21.072C166.594 20.368 166.438 19.832 166.126 19.464C165.814 19.096 165.394 18.912 164.866 18.912C164.522 18.912 164.218 18.996 163.954 19.164C163.698 19.324 163.498 19.564 163.354 19.884C163.21 20.204 163.138 20.6 163.138 21.072C163.138 21.776 163.294 22.316 163.606 22.692C163.926 23.06 164.346 23.244 164.866 23.244ZM169.756 26.244C169.588 26.244 169.456 26.196 169.36 26.1C169.264 26.004 169.216 25.868 169.216 25.692V18.624C169.216 18.44 169.264 18.304 169.36 18.216C169.456 18.12 169.588 18.072 169.756 18.072C169.932 18.072 170.064 18.12 170.152 18.216C170.248 18.304 170.296 18.44 170.296 18.624V19.716L170.164 19.5C170.292 19.06 170.544 18.708 170.92 18.444C171.296 18.18 171.748 18.048 172.276 18.048C172.796 18.048 173.248 18.172 173.632 18.42C174.016 18.66 174.316 19.008 174.532 19.464C174.748 19.912 174.856 20.448 174.856 21.072C174.856 21.688 174.748 22.228 174.532 22.692C174.324 23.148 174.024 23.5 173.632 23.748C173.248 23.988 172.796 24.108 172.276 24.108C171.756 24.108 171.308 23.976 170.932 23.712C170.556 23.448 170.304 23.1 170.176 22.668H170.308V25.692C170.308 25.868 170.26 26.004 170.164 26.1C170.068 26.196 169.932 26.244 169.756 26.244ZM172.024 23.244C172.368 23.244 172.668 23.16 172.924 22.992C173.188 22.824 173.392 22.58 173.536 22.26C173.68 21.94 173.752 21.544 173.752 21.072C173.752 20.368 173.596 19.832 173.284 19.464C172.972 19.096 172.552 18.912 172.024 18.912C171.672 18.912 171.364 18.996 171.1 19.164C170.844 19.324 170.644 19.564 170.5 19.884C170.364 20.204 170.296 20.6 170.296 21.072C170.296 21.776 170.452 22.316 170.764 22.692C171.076 23.06 171.496 23.244 172.024 23.244ZM180.168 24.084C180 24.084 179.868 24.036 179.772 23.94C179.676 23.844 179.628 23.704 179.628 23.52V16.008C179.628 15.824 179.676 15.688 179.772 15.6C179.868 15.504 180 15.456 180.168 15.456C180.344 15.456 180.48 15.504 180.576 15.6C180.672 15.688 180.72 15.824 180.72 16.008V19.428H180.564C180.732 18.972 181.004 18.628 181.38 18.396C181.764 18.164 182.2 18.048 182.688 18.048C183.16 18.048 183.548 18.136 183.852 18.312C184.156 18.48 184.384 18.736 184.536 19.08C184.688 19.424 184.764 19.856 184.764 20.376V23.52C184.764 23.704 184.716 23.844 184.62 23.94C184.532 24.036 184.4 24.084 184.224 24.084C184.048 24.084 183.912 24.036 183.816 23.94C183.72 23.844 183.672 23.704 183.672 23.52V20.436C183.672 19.916 183.572 19.536 183.372 19.296C183.172 19.056 182.852 18.936 182.412 18.936C181.9 18.936 181.488 19.096 181.176 19.416C180.872 19.728 180.72 20.152 180.72 20.688V23.52C180.72 23.896 180.536 24.084 180.168 24.084ZM189.316 24.108C188.684 24.108 188.14 23.988 187.684 23.748C187.236 23.5 186.888 23.152 186.64 22.704C186.392 22.248 186.268 21.712 186.268 21.096C186.268 20.488 186.388 19.956 186.628 19.5C186.876 19.044 187.212 18.688 187.636 18.432C188.068 18.176 188.56 18.048 189.112 18.048C189.504 18.048 189.856 18.116 190.168 18.252C190.488 18.38 190.76 18.568 190.984 18.816C191.208 19.064 191.376 19.368 191.488 19.728C191.608 20.08 191.668 20.48 191.668 20.928C191.668 21.056 191.628 21.156 191.548 21.228C191.476 21.292 191.368 21.324 191.224 21.324H187.12V20.628H190.948L190.744 20.796C190.744 20.38 190.68 20.028 190.552 19.74C190.432 19.444 190.252 19.22 190.012 19.068C189.78 18.916 189.488 18.84 189.136 18.84C188.752 18.84 188.424 18.932 188.152 19.116C187.88 19.292 187.672 19.544 187.528 19.872C187.384 20.192 187.312 20.564 187.312 20.988V21.06C187.312 21.78 187.484 22.324 187.828 22.692C188.172 23.06 188.668 23.244 189.316 23.244C189.572 23.244 189.832 23.212 190.096 23.148C190.368 23.084 190.628 22.968 190.876 22.8C190.996 22.728 191.104 22.696 191.2 22.704C191.304 22.704 191.388 22.736 191.452 22.8C191.516 22.856 191.556 22.928 191.572 23.016C191.588 23.096 191.576 23.184 191.536 23.28C191.496 23.376 191.42 23.46 191.308 23.532C191.044 23.716 190.728 23.86 190.36 23.964C190 24.06 189.652 24.108 189.316 24.108ZM193.71 24.084C193.526 24.084 193.386 24.036 193.29 23.94C193.194 23.844 193.146 23.704 193.146 23.52V18.624C193.146 18.44 193.194 18.304 193.29 18.216C193.386 18.12 193.518 18.072 193.686 18.072C193.854 18.072 193.982 18.12 194.07 18.216C194.166 18.304 194.214 18.44 194.214 18.624V19.548H194.094C194.222 19.068 194.462 18.704 194.814 18.456C195.166 18.208 195.61 18.068 196.146 18.036C196.274 18.028 196.378 18.06 196.458 18.132C196.538 18.196 196.582 18.308 196.59 18.468C196.598 18.62 196.562 18.744 196.482 18.84C196.402 18.928 196.278 18.98 196.11 18.996L195.894 19.008C195.366 19.064 194.958 19.236 194.67 19.524C194.39 19.812 194.25 20.208 194.25 20.712V23.52C194.25 23.704 194.202 23.844 194.106 23.94C194.018 24.036 193.886 24.084 193.71 24.084ZM200.266 24.108C199.634 24.108 199.09 23.988 198.634 23.748C198.186 23.5 197.838 23.152 197.59 22.704C197.342 22.248 197.218 21.712 197.218 21.096C197.218 20.488 197.338 19.956 197.578 19.5C197.826 19.044 198.162 18.688 198.586 18.432C199.018 18.176 199.51 18.048 200.062 18.048C200.454 18.048 200.806 18.116 201.118 18.252C201.438 18.38 201.71 18.568 201.934 18.816C202.158 19.064 202.326 19.368 202.438 19.728C202.558 20.08 202.618 20.48 202.618 20.928C202.618 21.056 202.578 21.156 202.498 21.228C202.426 21.292 202.318 21.324 202.174 21.324H198.07V20.628H201.898L201.694 20.796C201.694 20.38 201.63 20.028 201.502 19.74C201.382 19.444 201.202 19.22 200.962 19.068C200.73 18.916 200.438 18.84 200.086 18.84C199.702 18.84 199.374 18.932 199.102 19.116C198.83 19.292 198.622 19.544 198.478 19.872C198.334 20.192 198.262 20.564 198.262 20.988V21.06C198.262 21.78 198.434 22.324 198.778 22.692C199.122 23.06 199.618 23.244 200.266 23.244C200.522 23.244 200.782 23.212 201.046 23.148C201.318 23.084 201.578 22.968 201.826 22.8C201.946 22.728 202.054 22.696 202.15 22.704C202.254 22.704 202.338 22.736 202.402 22.8C202.466 22.856 202.506 22.928 202.522 23.016C202.538 23.096 202.526 23.184 202.486 23.28C202.446 23.376 202.37 23.46 202.258 23.532C201.994 23.716 201.678 23.86 201.31 23.964C200.95 24.06 200.602 24.108 200.266 24.108Z" fill="#0094FF"/>
</svg>
