<svg width="12" height="11" viewBox="0 0 12 11" fill="none" xmlns="http://www.w3.org/2000/svg">
<path fill-rule="evenodd" clip-rule="evenodd" d="M4.41201 10.3575L9.72723 3.48388C10.0161 3.11321 10.1188 2.68467 10.0225 2.24833C9.93907 1.85165 9.69514 1.47448 9.32924 1.18835L8.43695 0.479531C7.6602 -0.138247 6.6973 -0.0732174 6.14524 0.635601L5.54824 1.4101C5.47121 1.50699 5.49047 1.65006 5.58676 1.72809C5.58676 1.72809 7.0953 2.93764 7.1274 2.96365C7.23011 3.06119 7.30714 3.19125 7.3264 3.34732C7.3585 3.65296 7.14666 3.93909 6.83211 3.9781C6.68446 3.99761 6.54324 3.95209 6.44053 3.86755L4.85495 2.60599C4.77792 2.54811 4.66237 2.56047 4.59818 2.6385L0.830018 7.51569C0.586083 7.82133 0.502631 8.21801 0.586083 8.60168L1.06753 10.6891C1.09321 10.7997 1.1895 10.8777 1.30505 10.8777L3.42343 10.8517C3.8086 10.8452 4.16808 10.6696 4.41201 10.3575ZM7.37675 9.70898H10.831C11.168 9.70898 11.4421 9.98666 11.4421 10.3281C11.4421 10.6701 11.168 10.9471 10.831 10.9471H7.37675C7.03973 10.9471 6.76562 10.6701 6.76562 10.3281C6.76562 9.98666 7.03973 9.70898 7.37675 9.70898Z" fill="#F29339"/>
</svg>
