<svg width="12" height="16" viewBox="0 0 12 16" fill="none" xmlns="http://www.w3.org/2000/svg">
<path d="M11.2499 16H0.750389C0.459399 16 0.194638 15.82 0.0709083 15.5392C-0.0528209 15.2584 -0.0123102 14.9264 0.174314 14.6879L5.39868 7.99993L0.174314 1.31279C-0.0123102 1.07358 -0.0521343 0.741648 0.0709083 0.460838C0.194638 0.180029 0.459399 0 0.750389 0H11.2499C11.664 0 12 0.357567 12 0.799949V3.19994C12 3.64232 11.664 4.00004 11.2499 4.00004C10.836 4.00004 10.5 3.64232 10.5 3.19994V1.60004H2.35159L6.95113 7.48723C7.18294 7.78401 7.18294 8.21511 6.95113 8.51203L2.35159 14.4H10.5V12.7999C10.5 12.3575 10.836 12 11.2499 12C11.664 12 12 12.3575 12 12.7999V15.1999C12 15.6423 11.664 16 11.2499 16Z" fill="#5DB566"/>
</svg>
