<svg width="48" height="41" viewBox="0 0 48 41" fill="none" xmlns="http://www.w3.org/2000/svg">
<rect y="0.5" width="48" height="40" rx="5" fill="#605BFF"/>
<path d="M20.25 25.7512H19.5C17.4289 25.7512 15.75 24.0723 15.75 22.0012C15.75 20.0137 17.2962 18.3873 19.2514 18.2593C20.0923 16.4812 21.9025 15.2512 24 15.2512C26.645 15.2512 28.8332 17.2072 29.1969 19.7517C29.2146 19.7514 29.2323 19.7512 29.25 19.7512C30.9069 19.7512 32.25 21.0944 32.25 22.7512C32.25 24.4081 30.9069 25.7512 29.25 25.7512H27.75" stroke="white" strokeWidth="1.3" strokeLinecap="round" strokeLinejoin="round"/>
<path d="M26.25 22.03L24 19.78M24 19.78L21.75 22.03M24 19.78L24 25.78" stroke="white" strokeWidth="1.3" strokeLinecap="round" strokeLinejoin="round"/>
</svg>
