<svg width="22" height="16" viewBox="0 0 22 16" fill="none" xmlns="http://www.w3.org/2000/svg">
<path d="M16.0852 8.10139H20.093C20.6451 8.10139 21.0942 7.65224 21.0942 7.09981V1.52666C21.0942 0.974547 20.6451 0.525391 20.093 0.525391H16.0852C15.5331 0.525391 15.084 0.974541 15.084 1.52666V7.09981C15.084 7.65224 15.5331 8.10139 16.0852 8.10139ZM17.8827 3.62011V2.36859H18.5085V3.62011H19.7599V4.24586H18.5085V5.49738H17.8827V4.24586H16.6312V3.62011H17.8827Z" fill="#BDBDBD"/>
<path d="M12.5234 14.0798C12.502 14.051 12.4739 14.0217 12.443 13.9905C12.0443 13.6043 8.92811 12.0216 8.80711 11.7106C8.68035 11.3963 8.65874 11.0503 8.63983 10.6851H9.40689C9.49213 10.6851 9.56944 10.6356 9.60548 10.5586C9.64123 10.4813 9.62932 10.3903 9.57462 10.3252L9.56179 10.3102C10.4867 10.1089 10.4867 10.0215 10.4867 9.86383C10.4867 9.80181 10.4867 9.70953 10.1197 9.22769C10.1561 9.08164 10.1958 8.93865 10.2492 8.78801C10.3162 8.6001 10.3828 8.41158 10.4384 8.21969C10.5193 7.93828 10.509 7.63733 10.4894 7.3275C10.4686 6.99354 10.4142 6.64339 10.3281 6.28742C10.2364 5.90793 10.1133 5.54342 9.96235 5.20396C9.79675 4.83089 9.60151 4.49967 9.38244 4.21918C9.13648 3.90478 8.8618 3.65759 8.56634 3.48496C8.23973 3.29338 7.87124 3.18889 7.50093 3.18277C7.1132 3.17819 6.70164 3.27383 6.28183 3.47121C6.05237 3.47641 5.8278 3.51613 5.61301 3.58976C5.1987 3.73153 4.80914 4.00775 4.4868 4.38846C4.18951 4.73953 3.95058 5.1676 3.77703 5.66075C3.6096 6.13648 3.5158 6.63299 3.49899 7.13653C3.49044 7.38861 3.50204 7.63641 3.53352 7.87351C3.54971 7.99206 3.57079 8.11061 3.59768 8.22733C3.62518 8.3471 3.66582 8.45771 3.70767 8.57015L3.74373 8.66762C3.77123 8.74492 3.79261 8.82528 3.82409 8.94261C3.85006 9.03733 3.8748 9.13204 3.89833 9.22738C3.53108 9.70953 3.53108 9.8018 3.53108 9.86383C3.53108 10.0218 3.53108 10.1089 4.46022 10.3111L4.44708 10.327C4.3933 10.3924 4.382 10.4832 4.41836 10.5595C4.45441 10.6362 4.53171 10.6851 4.61635 10.6851H5.3779C5.359 11.0503 5.33734 11.3964 5.2097 11.713C5.09207 12.0155 4.74009 12.1854 4.39972 12.3497C4.32181 12.3876 4.24481 12.4249 4.17179 12.4628L3.80147 12.6535C3.61876 12.7473 3.43697 12.8404 3.2567 12.9358C3.15464 12.9899 3.04893 13.0439 2.94138 13.0989C2.47238 13.3385 1.94074 13.6101 1.54843 13.9905C1.54385 13.9951 1.48641 14.0635 1.48213 14.0684C1.04704 14.5732 0.922996 15.1501 0.910469 15.2142C0.897635 15.2784 0.914442 15.345 0.955991 15.3957C0.997547 15.4464 1.05957 15.4758 1.12526 15.4758H12.8714C12.9371 15.4758 12.9991 15.4464 13.0406 15.3957C13.0822 15.345 13.099 15.2784 13.0862 15.2142C13.0737 15.1501 12.9496 14.5732 12.5234 14.0798Z" fill="#BDBDBD"/>
<path d="M20.1408 15.2004C20.1389 15.1742 20.134 15.1463 20.123 15.1244C20.1151 15.0923 20.1026 15.0525 20.0876 15.007L20.0619 14.927C20.0607 14.9221 20.0589 14.9175 20.0574 14.9129C20.0555 14.9068 20.0534 14.9007 20.0509 14.8946C20.021 14.8173 19.9801 14.7226 19.9327 14.6217C19.9287 14.6089 19.9235 14.5967 19.9174 14.5848C19.8178 14.3993 19.7011 14.2276 19.5422 14.043C19.5376 14.0375 19.5028 13.9996 19.4976 13.9944C19.1026 13.6147 18.5908 13.3546 18.0961 13.1035L17.7884 12.9452C17.595 12.8431 17.3967 12.7408 17.1984 12.6384L16.8651 12.4658C16.4746 12.2626 16.1923 12.1156 16.0475 11.7481L16.0258 11.687C16.0166 11.6619 16.0065 11.6372 15.9961 11.5944C15.9699 11.5097 15.9546 11.4251 15.9356 11.3212C15.9256 11.2815 15.9207 11.2396 15.9152 11.1972L15.906 11.1293C15.8865 10.9497 15.8755 10.7654 15.8651 10.5726L16.0276 10.3716C16.0405 10.3523 16.0597 10.3236 16.0747 10.2842C16.1031 10.2341 16.1245 10.1773 16.1349 10.1272C16.155 10.0663 16.1749 10.0052 16.1856 9.94932C16.2397 9.74033 16.2815 9.50139 16.3078 9.34679C16.3139 9.34343 16.3197 9.34007 16.3258 9.33671L16.3252 9.33579C16.3359 9.3306 16.3463 9.3251 16.3561 9.31929C16.4071 9.29302 16.4569 9.25452 16.4966 9.21113C16.5266 9.187 16.5516 9.16011 16.5644 9.13994C16.6219 9.06783 16.6656 8.98839 16.6977 8.89214L16.7462 8.72379C16.7675 8.66004 16.7807 8.60008 16.7956 8.53924H16.3424H16.0848C15.291 8.53924 14.6454 7.89331 14.6454 7.09951V3.98654V3.54242C13.5089 3.36536 12.7441 3.8794 12.5225 4.05841C12.206 4.08347 11.7272 4.26313 11.5209 5.07221C11.3776 5.65764 11.5225 6.35917 11.5261 6.35917C11.5387 6.84193 11.5481 7.13312 11.5564 7.31217C11.4821 7.3302 11.4128 7.36076 11.3715 7.4017C11.158 7.62414 11.1971 7.92449 11.2246 8.13714C11.2505 8.36447 11.3101 8.56644 11.3676 8.76168L11.4109 8.90895C11.4754 9.08831 11.6117 9.27102 11.7941 9.35291C11.8399 9.64593 11.9395 10.1724 12.0877 10.3881L12.2377 10.5723L12.2322 10.6613C12.2099 11.0435 12.1885 11.4046 12.0596 11.7368C11.9071 12.1248 11.7718 12.1945 11.3731 12.3998C11.3223 12.4252 11.2845 12.4441 11.2398 12.4692C11.1702 12.5089 11.1277 12.5831 11.1289 12.6635C11.1305 12.7435 11.1754 12.8166 11.2463 12.8539C11.616 13.0479 11.9447 13.252 12.2808 13.4967C12.9026 13.9495 13.3242 14.5423 13.5005 15.2108C13.5635 15.4519 13.7559 15.473 13.8721 15.473C13.8858 15.473 13.8983 15.4727 13.9096 15.4724H19.9284C20.0494 15.4724 20.1475 15.3743 20.1475 15.2533C20.1475 15.2371 20.1447 15.2185 20.1408 15.2004Z" fill="#BDBDBD"/>
</svg>
