<svg width="20" height="20" viewBox="0 0 20 20" fill="none" xmlns="http://www.w3.org/2000/svg">
<path d="M6.99453 8.00015C5.93367 8.00015 4.91625 7.57872 4.1661 6.82857C3.41596 6.07843 2.99453 5.06101 2.99453 4.00015C2.99453 2.93928 3.41596 1.92187 4.1661 1.17172C4.91625 0.421574 5.93367 0.00014702 6.99453 0.00014702C8.0554 0.00014702 9.07281 0.421574 9.82296 1.17172C10.5731 1.92187 10.9945 2.93928 10.9945 4.00015C10.9945 5.06101 10.5731 6.07843 9.82296 6.82857C9.07281 7.57872 8.0554 8.00015 6.99453 8.00015ZM6.99453 9.00015C9.14453 9.00015 11.1945 9.40015 13.0945 10.0901L11.9945 16.0001H10.7445L9.99453 20.0001H3.99453L3.24453 16.0001H1.99453L0.894531 10.0901C2.84919 9.37554 4.91335 9.0067 6.99453 9.00015ZM15.3045 9.17015C16.6245 9.35015 17.8945 9.65015 19.1045 10.0901L17.9945 16.0001H16.7445L15.9945 20.0001H12.0345L12.4045 18.0001H13.6545L15.3045 9.17015ZM12.9945 0.00014702C13.5799 -0.00487147 14.1592 0.118646 14.6916 0.36198C15.224 0.605315 15.6965 0.962537 16.0758 1.40843C16.455 1.85433 16.7318 2.37803 16.8865 2.94258C17.0413 3.50712 17.0702 4.09876 16.9713 4.67571C16.8725 5.25267 16.6481 5.8009 16.3142 6.28169C15.9803 6.76249 15.545 7.16413 15.0389 7.45829C14.5328 7.75244 13.9683 7.93193 13.3852 7.98409C12.8022 8.03625 12.2148 7.9598 11.6645 7.76015C12.5286 6.69751 13.0002 5.36972 13.0002 4.00015C13.0002 2.63057 12.5286 1.30278 11.6645 0.240147C12.0945 0.100147 12.5245 0.00014702 12.9945 0.00014702Z" fill="#767485"/>
</svg>
