<svg width="14" height="13" viewBox="0 0 14 13" fill="none" xmlns="http://www.w3.org/2000/svg">
<path d="M13.7427 10.0128L8.38068 1.11673C8.0783 0.614995 7.56214 0.31543 6.99999 0.31543C6.43779 0.31543 5.92163 0.614995 5.61934 1.11673L0.257239 10.0128C-0.064602 10.5468 -0.0859529 11.2237 0.201699 11.7795C0.489351 12.3349 1.0397 12.6801 1.63798 12.6801H12.362C12.9603 12.6801 13.5107 12.335 13.7984 11.7793C14.0859 11.2237 14.0646 10.5469 13.7427 10.0128ZM6.99999 11.1826C6.50689 11.1826 6.10721 10.7594 6.10721 10.2373C6.10721 9.71522 6.50694 9.29198 6.99999 9.29198C7.49309 9.29198 7.89277 9.71522 7.89277 10.2373C7.89277 10.7594 7.49304 11.1826 6.99999 11.1826ZM8.23744 4.61369L7.79772 7.74847C7.73299 8.2099 7.32724 8.5284 6.89148 8.45987C6.53941 8.4045 6.27545 8.11223 6.22118 7.75915L5.74366 4.63058C5.63249 3.90215 6.10005 3.21622 6.78801 3.09851C7.47597 2.9808 8.1238 3.47586 8.23497 4.20429C8.25587 4.34146 8.25515 4.48306 8.23744 4.61369Z" fill="#FFF0F1"/>
</svg>
