<svg width="18" height="18" viewBox="0 0 18 18" fill="none" xmlns="http://www.w3.org/2000/svg">
      <g clipPath="url(#clip0_4071_1080)">
        <path d="M3.4312 9.73856L5.51977 7.65C6.31871 8.24839 7.31468 8.5219 8.30718 8.41547C9.29968 8.30904 10.215 7.83058 10.8689 7.0764C11.5228 6.32221 11.8667 5.34831 11.8314 4.35074C11.7961 3.35318 11.3842 2.40602 10.6787 1.69995C9.97308 0.993871 9.02621 0.581303 8.02867 0.545296C7.03114 0.509289 6.05699 0.852517 5.30234 1.50589C4.5477 2.15925 4.06858 3.07425 3.96145 4.06667C3.85432 5.0591 4.12713 6.05526 4.72495 6.85462L2.63583 8.94375L1.84045 8.14781C1.73491 8.04234 1.59178 7.98311 1.44257 7.98317C1.29335 7.98322 1.15027 8.04255 1.0448 8.14809C0.939325 8.25364 0.8801 8.39677 0.880153 8.54598C0.880205 8.6952 0.939531 8.83828 1.04508 8.94375L1.84045 9.73969L0.727267 10.8523C0.673542 10.9042 0.63069 10.9663 0.60121 11.0349C0.571729 11.1035 0.556212 11.1773 0.555563 11.252C0.554914 11.3267 0.569146 11.4008 0.597429 11.4699C0.625712 11.539 0.66748 11.6018 0.720294 11.6547C0.773109 11.7075 0.835913 11.7492 0.905042 11.7775C0.974172 11.8058 1.04824 11.82 1.12293 11.8194C1.19762 11.8187 1.27143 11.8032 1.34006 11.7737C1.40868 11.7443 1.47075 11.7014 1.52264 11.6477L2.63583 10.5345L3.4312 11.3299C3.48309 11.3836 3.54516 11.4265 3.61379 11.4559C3.68242 11.4854 3.75623 11.5009 3.83092 11.5016C3.9056 11.5022 3.97967 11.488 4.0488 11.4597C4.11793 11.4314 4.18074 11.3897 4.23355 11.3368C4.28637 11.284 4.32813 11.2212 4.35642 11.1521C4.3847 11.083 4.39893 11.0089 4.39828 10.9342C4.39763 10.8595 4.38212 10.7857 4.35264 10.7171C4.32316 10.6485 4.2803 10.5864 4.22658 10.5345L3.4312 9.73856ZM7.87495 1.6875C8.43121 1.6875 8.97498 1.85245 9.4375 2.16149C9.90001 2.47053 10.2605 2.90979 10.4734 3.4237C10.6862 3.93762 10.7419 4.50312 10.6334 5.04869C10.5249 5.59426 10.257 6.0954 9.86369 6.48874C9.47036 6.88207 8.96922 7.14994 8.42365 7.25846C7.87807 7.36698 7.31257 7.31128 6.79866 7.09841C6.28474 6.88554 5.84549 6.52505 5.53645 6.06254C5.2274 5.60003 5.06245 5.05626 5.06245 4.5C5.06245 3.75408 5.35877 3.03871 5.88622 2.51126C6.41366 1.98382 7.12903 1.6875 7.87495 1.6875Z" fill="#FC80FF"/>
        <path d="M16.875 6.1875H14.0625C13.9133 6.1875 13.7702 6.24676 13.6647 6.35225C13.5592 6.45774 13.5 6.60082 13.5 6.75C13.5 6.89918 13.5592 7.04226 13.6647 7.14775C13.7702 7.25324 13.9133 7.3125 14.0625 7.3125H15.5171L12.4796 10.35C11.6804 9.75194 10.6844 9.47883 9.69193 9.58565C8.69949 9.69246 7.78436 10.1713 7.13076 10.9257C6.47715 11.6801 6.13361 12.6541 6.16927 13.6517C6.20494 14.6492 6.61717 15.5962 7.32298 16.302C8.0288 17.0078 8.97579 17.42 9.97332 17.4557C10.9709 17.4914 11.9449 17.1478 12.6993 16.4942C13.4537 15.8406 13.9325 14.9255 14.0393 13.933C14.1461 12.9406 13.873 11.9445 13.275 11.1454L16.3125 8.10787V9.5625C16.3125 9.71168 16.3717 9.85476 16.4772 9.96025C16.5827 10.0657 16.7258 10.125 16.875 10.125C17.0242 10.125 17.1672 10.0657 17.2727 9.96025C17.3782 9.85476 17.4375 9.71168 17.4375 9.5625V6.75C17.4375 6.60082 17.3782 6.45774 17.2727 6.35225C17.1672 6.24676 17.0242 6.1875 16.875 6.1875ZM10.125 16.3125C9.56872 16.3125 9.02495 16.1475 8.56244 15.8385C8.09993 15.5295 7.73944 15.0902 7.52657 14.5763C7.3137 14.0624 7.258 13.4969 7.36652 12.9513C7.47504 12.4057 7.74291 11.9046 8.13624 11.5113C8.52958 11.1179 9.03072 10.8501 9.57629 10.7415C10.1219 10.633 10.6874 10.6887 11.2013 10.9016C11.7152 11.1145 12.1544 11.4749 12.4635 11.9375C12.7725 12.4 12.9375 12.9437 12.9375 13.5C12.9375 13.8693 12.8647 14.2351 12.7234 14.5763C12.5821 14.9175 12.3749 15.2276 12.1137 15.4887C11.8526 15.7499 11.5425 15.9571 11.2013 16.0984C10.86 16.2398 10.4943 16.3125 10.125 16.3125Z" fill="#E3EDFF"/>
      </g>
      <defs>
        <clipPath id="clip0_4071_1080">
          <rect width="18" height="18" fill="white"/>
        </clipPath>
      </defs>
    </svg>
