<svg width="14" height="15" viewBox="0 0 14 15" fill="none" xmlns="http://www.w3.org/2000/svg">
<path d="M7 13.1753C9.8995 13.1753 12.25 10.8248 12.25 7.92529C12.25 5.0258 9.8995 2.67529 7 2.67529C4.1005 2.67529 1.75 5.0258 1.75 7.92529C1.75 10.8248 4.1005 13.1753 7 13.1753Z" fill="#313037" stroke="#313037" strokeLinecap="round" strokeLinejoin="round"/>
<path d="M7.375 10.2578C7.375 10.4649 7.20711 10.6328 7 10.6328C6.79289 10.6328 6.625 10.4649 6.625 10.2578C6.625 10.0507 6.79289 9.88281 7 9.88281C7.20711 9.88281 7.375 10.0507 7.375 10.2578Z" fill="#767485" stroke="#767485"/>
<path d="M6.17504 5.65772C6.40232 5.43044 6.70005 5.31654 6.99794 5.31601C7.2972 5.31549 7.59663 5.42939 7.82496 5.65772C8.05276 5.88553 8.16667 6.1841 8.16667 6.48268C8.16667 6.78126 8.05276 7.07983 7.82496 7.30764C7.59663 7.53597 7.2972 7.64987 6.99794 7.64934L7 8.23268" stroke="#767485" strokeLinecap="round" strokeLinejoin="round"/>
</svg>
