<svg width="20" height="16" viewBox="0 0 20 16" fill="none" xmlns="http://www.w3.org/2000/svg">
<path d="M4.17114 12.7654C4.17114 14.7297 6.83457 15.2208 9.95384 15.2208C13.0902 15.2208 15.7365 14.7118 15.7365 12.7475C15.7365 10.7823 13.0731 10.2913 9.95384 10.2913C6.81748 10.2913 4.17114 10.8002 4.17114 12.7654Z" fill="#BDBDBD"/>
<path d="M9.95286 8.42087C12.0766 8.42087 13.7795 6.71996 13.7795 4.5987C13.7795 2.47663 12.0766 0.777344 9.95286 0.777344C7.82912 0.777344 6.12622 2.47663 6.12622 4.5987C6.12622 6.71996 7.82912 8.42087 9.95286 8.42087Z" fill="#BDBDBD"/>
<path d="M15.4156 4.66838C15.4156 5.74974 15.0909 6.75711 14.521 7.59456C14.4624 7.68074 14.5145 7.79701 14.6179 7.8149C14.7604 7.83929 14.9077 7.85311 15.0575 7.85718C16.5512 7.8962 17.8918 6.93599 18.2622 5.49037C18.8109 3.3431 17.1999 1.41534 15.1486 1.41534C14.9256 1.41534 14.7123 1.43892 14.5048 1.4812C14.4763 1.48771 14.4462 1.50071 14.4299 1.52592C14.4103 1.55682 14.425 1.59828 14.4445 1.62511C15.0607 2.48776 15.4156 3.53986 15.4156 4.66838Z" fill="#BDBDBD"/>
<path d="M19.8267 10.5418C19.5532 9.96048 18.893 9.56045 17.8893 9.36451C17.4156 9.24905 16.1335 9.08644 14.941 9.10839C14.9231 9.11083 14.9133 9.12384 14.9117 9.13197C14.9093 9.14336 14.9141 9.16206 14.9377 9.17425C15.4888 9.44662 17.6191 10.6312 17.3513 13.1298C17.3399 13.2379 17.427 13.3314 17.5352 13.3151C18.0595 13.2403 19.4083 12.9509 19.8267 12.0492C20.0578 11.5728 20.0578 11.0191 19.8267 10.5418Z" fill="#BDBDBD"/>
<path d="M4.94107 7.85504C5.09085 7.85098 5.23737 7.83797 5.38063 7.81276C5.48401 7.79487 5.53611 7.67861 5.4775 7.59242C4.9077 6.75498 4.58291 5.7476 4.58291 4.66624C4.58291 3.53772 4.93781 2.48563 5.55402 1.62298C5.57355 1.59615 5.58739 1.55468 5.56867 1.52378C5.55239 1.49939 5.52146 1.48557 5.49378 1.47907C5.2854 1.43679 5.07213 1.41321 4.84909 1.41321C2.79779 1.41321 1.18688 3.34096 1.73633 5.48824C2.1067 6.93385 3.44737 7.89407 4.94107 7.85504Z" fill="#BDBDBD"/>
<path d="M5.06291 9.17425C5.0857 9.16124 5.09059 9.14336 5.08815 9.13116C5.08652 9.12384 5.07756 9.11083 5.05966 9.10839C3.86632 9.08644 2.58508 9.24905 2.11051 9.36369C1.10684 9.56045 0.4475 9.96048 0.173994 10.5418C-0.0579979 11.0191 -0.0579979 11.5719 0.173994 12.0492C0.592393 12.9509 1.9412 13.2403 2.46542 13.3151C2.57368 13.3306 2.65997 13.2379 2.64857 13.1289C2.38076 10.6312 4.51102 9.44662 5.06291 9.17425Z" fill="#BDBDBD"/>
</svg>
