<svg width="16" height="16" viewBox="0 0 16 16" fill="none" xmlns="http://www.w3.org/2000/svg">
<path fill-rule="evenodd" clip-rule="evenodd" d="M15.3346 6.98796C15.3346 4.41311 15.3346 3.12568 14.7167 2.20086C14.4492 1.8005 14.1054 1.45675 13.7051 1.18923C12.7802 0.571289 11.4928 0.571289 8.91797 0.571289H7.08464C4.50979 0.571289 3.22236 0.571289 2.29754 1.18923C1.89718 1.45675 1.55343 1.8005 1.28591 2.20086C0.667969 3.12568 0.667969 4.41311 0.667969 6.98796C0.667969 9.5628 0.667969 10.8502 1.28591 11.775C1.55343 12.1754 1.89718 12.5192 2.29754 12.7867C3.10545 13.3265 4.19007 13.3947 6.16797 13.4034V13.4046L7.18141 15.4315C7.51922 16.1071 8.48338 16.1071 8.82119 15.4315L9.83463 13.4046V13.4034C11.8125 13.3947 12.8972 13.3265 13.7051 12.7867C14.1054 12.5192 14.4492 12.1754 14.7167 11.775C15.3346 10.8502 15.3346 9.5628 15.3346 6.98796ZM5.25 4.15454C4.69772 4.15454 4.25 4.60226 4.25 5.15454C4.25 5.70683 4.69772 6.15454 5.25 6.15454H10.75C11.3023 6.15454 11.75 5.70683 11.75 5.15454C11.75 4.60226 11.3023 4.15454 10.75 4.15454H5.25ZM5.25 7.82121C4.69772 7.82121 4.25 8.26892 4.25 8.82121C4.25 9.37349 4.69772 9.82121 5.25 9.82121H8C8.55228 9.82121 9 9.37349 9 8.82121C9 8.26892 8.55228 7.82121 8 7.82121H5.25Z" fill="#0094FF"/>
</svg>