<svg width="16" height="18" viewBox="0 0 16 18" fill="none" xmlns="http://www.w3.org/2000/svg">
<path fill-rule="evenodd" clip-rule="evenodd" d="M8.16407 0V4.29911L8.16406 4.34386C8.16401 4.77667 8.16396 5.17351 8.20737 5.49632C8.25516 5.8518 8.36761 6.22752 8.67663 6.53655C8.98565 6.84557 9.36138 6.95802 9.71686 7.00581C10.0397 7.04921 10.4365 7.04916 10.8693 7.04911H10.8693L10.9141 7.04911H15.3125V12.6C15.3125 15.1456 15.3125 16.4184 14.5094 17.2092C13.7062 18 12.4135 18 9.82815 18H6.17189C3.58652 18 2.29384 18 1.49067 17.2092C0.6875 16.4184 0.6875 15.1456 0.6875 12.6V5.40001C0.6875 2.85442 0.6875 1.58163 1.49067 0.790814C2.29384 0 3.58652 0 6.17189 0H8.16407ZM9.66407 0.00139165V4.29911C9.66407 4.79172 9.66566 5.08572 9.69399 5.29645C9.70697 5.393 9.72226 5.44137 9.73122 5.46315C9.7333 5.46819 9.73492 5.47151 9.73593 5.47344L9.73724 5.47583C9.73683 5.47543 9.73687 5.47543 9.73714 5.47576L9.73717 5.47579L9.73724 5.47583L9.73726 5.47591L9.73742 5.47604C9.73776 5.47632 9.73775 5.47634 9.73729 5.47589L9.73724 5.47583L9.7373 5.47587L9.73974 5.47725C9.74083 5.47782 9.74236 5.47858 9.7444 5.47951C9.74597 5.48023 9.74783 5.48105 9.75003 5.48195C9.77181 5.49091 9.82017 5.5062 9.91673 5.51919C10.1275 5.54752 10.4215 5.54911 10.9141 5.54911H15.311C15.3056 5.09277 15.2814 4.81359 15.1734 4.55677C15.0342 4.22598 14.77 3.96585 14.2417 3.4456L14.2416 3.44559L11.8131 1.05442C11.2847 0.534162 11.0205 0.274034 10.6846 0.137017C10.4214 0.0296729 10.1351 0.00642607 9.66407 0.00139165ZM4.50781 9.90362C4.50781 9.48941 4.84359 9.15362 5.25781 9.15362L10.7422 9.15362C11.1564 9.15362 11.4922 9.48941 11.4922 9.90362C11.4922 10.3178 11.1564 10.6536 10.7422 10.6536L5.25781 10.6536C4.84359 10.6536 4.50781 10.3178 4.50781 9.90362ZM5.25781 12.7503C4.84359 12.7503 4.50781 13.0861 4.50781 13.5003C4.50781 13.9145 4.84359 14.2503 5.25781 14.2503H8.91407C9.32828 14.2503 9.66407 13.9145 9.66407 13.5003C9.66407 13.0861 9.32828 12.7503 8.91407 12.7503H5.25781Z" fill="#BDBDBD"/>
</svg>
