<svg width="80" height="80" viewBox="0 0 80 80" fill="none" xmlns="http://www.w3.org/2000/svg">
<circle cx="40" cy="40" r="38.0165" stroke="#49CE56" stroke-width="3.96694"/>
<path d="M20.6519 45C20.4599 45 20.3105 44.952 20.2039 44.856C20.0972 44.7493 20.0439 44.6053 20.0439 44.424C20.0439 44.2427 20.0972 44.1093 20.2039 44.024C20.3105 43.928 20.4599 43.88 20.6519 43.88H22.7319V34.808H23.4199L21.0999 36.344C20.9612 36.4187 20.8279 36.4507 20.6999 36.44C20.5825 36.4293 20.4812 36.3867 20.3959 36.312C20.3212 36.2267 20.2679 36.1307 20.2359 36.024C20.2039 35.9067 20.2092 35.7893 20.2519 35.672C20.2945 35.544 20.3852 35.4373 20.5239 35.352L22.7319 33.896C22.8705 33.8107 23.0039 33.7413 23.1319 33.688C23.2599 33.6347 23.3879 33.608 23.5159 33.608C23.6652 33.608 23.7879 33.656 23.8839 33.752C23.9905 33.8373 24.0439 33.976 24.0439 34.168V43.88H25.9639C26.1559 43.88 26.3052 43.928 26.4119 44.024C26.5185 44.1093 26.5719 44.2427 26.5719 44.424C26.5719 44.616 26.5185 44.76 26.4119 44.856C26.3052 44.952 26.1559 45 25.9639 45H20.6519ZM32.5656 45.144C31.275 45.144 30.2936 44.648 29.6216 43.656C28.9496 42.664 28.6136 41.2293 28.6136 39.352C28.6136 38.0933 28.763 37.0373 29.0616 36.184C29.3603 35.32 29.803 34.6693 30.3896 34.232C30.987 33.7947 31.7123 33.576 32.5656 33.576C33.867 33.576 34.8483 34.0667 35.5096 35.048C36.1816 36.0187 36.5176 37.448 36.5176 39.336C36.5176 40.5947 36.3683 41.656 36.0696 42.52C35.771 43.384 35.3283 44.04 34.7416 44.488C34.155 44.9253 33.4296 45.144 32.5656 45.144ZM32.5656 44.008C33.4616 44.008 34.123 43.6293 34.5496 42.872C34.987 42.104 35.2056 40.9253 35.2056 39.336C35.2056 37.736 34.987 36.568 34.5496 35.832C34.123 35.0853 33.4616 34.712 32.5656 34.712C31.6803 34.712 31.019 35.0853 30.5816 35.832C30.1443 36.5787 29.9256 37.7467 29.9256 39.336C29.9256 40.9253 30.1443 42.104 30.5816 42.872C31.019 43.6293 31.6803 44.008 32.5656 44.008ZM42.1594 45.144C40.8687 45.144 39.8874 44.648 39.2154 43.656C38.5434 42.664 38.2074 41.2293 38.2074 39.352C38.2074 38.0933 38.3567 37.0373 38.6554 36.184C38.954 35.32 39.3967 34.6693 39.9834 34.232C40.5807 33.7947 41.306 33.576 42.1594 33.576C43.4607 33.576 44.442 34.0667 45.1034 35.048C45.7754 36.0187 46.1114 37.448 46.1114 39.336C46.1114 40.5947 45.962 41.656 45.6634 42.52C45.3647 43.384 44.922 44.04 44.3354 44.488C43.7487 44.9253 43.0234 45.144 42.1594 45.144ZM42.1594 44.008C43.0554 44.008 43.7167 43.6293 44.1434 42.872C44.5807 42.104 44.7994 40.9253 44.7994 39.336C44.7994 37.736 44.5807 36.568 44.1434 35.832C43.7167 35.0853 43.0554 34.712 42.1594 34.712C41.274 34.712 40.6127 35.0853 40.1754 35.832C39.738 36.5787 39.5194 37.7467 39.5194 39.336C39.5194 40.9253 39.738 42.104 40.1754 42.872C40.6127 43.6293 41.274 44.008 42.1594 44.008ZM51.7531 45.016C51.6785 45.1547 51.5878 45.2453 51.4811 45.288C51.3745 45.3413 51.2678 45.352 51.1611 45.32C51.0545 45.2987 50.9638 45.2453 50.8891 45.16C50.8145 45.0853 50.7665 44.9893 50.7451 44.872C50.7345 44.7547 50.7665 44.6267 50.8411 44.488L57.0171 33.736C57.0918 33.5973 57.1825 33.5067 57.2891 33.464C57.3958 33.4107 57.5025 33.4 57.6091 33.432C57.7158 33.4533 57.8065 33.5067 57.8811 33.592C57.9558 33.6773 57.9985 33.7787 58.0091 33.896C58.0305 34.0133 58.0038 34.136 57.9291 34.264L51.7531 45.016ZM50.5691 40.488C49.7158 40.488 49.0491 40.184 48.5691 39.576C48.0891 38.968 47.8491 38.12 47.8491 37.032C47.8491 36.3067 47.9558 35.688 48.1691 35.176C48.3931 34.664 48.7078 34.2747 49.1131 34.008C49.5185 33.7307 50.0038 33.592 50.5691 33.592C51.4118 33.592 52.0731 33.896 52.5531 34.504C53.0438 35.1013 53.2891 35.944 53.2891 37.032C53.2891 37.7573 53.1771 38.376 52.9531 38.888C52.7398 39.4 52.4305 39.7947 52.0251 40.072C51.6198 40.3493 51.1345 40.488 50.5691 40.488ZM50.5691 39.544C50.8998 39.544 51.1825 39.448 51.4171 39.256C51.6625 39.064 51.8491 38.7813 51.9771 38.408C52.1051 38.0347 52.1691 37.576 52.1691 37.032C52.1691 36.2 52.0251 35.576 51.7371 35.16C51.4491 34.744 51.0598 34.536 50.5691 34.536C50.2385 34.536 49.9505 34.632 49.7051 34.824C49.4705 35.0053 49.2891 35.2827 49.1611 35.656C49.0331 36.0187 48.9691 36.4773 48.9691 37.032C48.9691 37.864 49.1078 38.4933 49.3851 38.92C49.6731 39.336 50.0678 39.544 50.5691 39.544ZM58.2171 45.144C57.3745 45.144 56.7078 44.84 56.2171 44.232C55.7371 43.624 55.4971 42.776 55.4971 41.688C55.4971 40.9627 55.6038 40.344 55.8171 39.832C56.0411 39.32 56.3558 38.9307 56.7611 38.664C57.1771 38.3867 57.6625 38.248 58.2171 38.248C59.0705 38.248 59.7371 38.552 60.2171 39.16C60.6971 39.7573 60.9371 40.6 60.9371 41.688C60.9371 42.4133 60.8305 43.0373 60.6171 43.56C60.4038 44.072 60.0945 44.4667 59.6891 44.744C59.2838 45.0107 58.7931 45.144 58.2171 45.144ZM58.2171 44.2C58.5585 44.2 58.8465 44.1093 59.0811 43.928C59.3158 43.736 59.4971 43.4533 59.6251 43.08C59.7531 42.7067 59.8171 42.2427 59.8171 41.688C59.8171 40.856 59.6731 40.232 59.3851 39.816C59.1078 39.4 58.7185 39.192 58.2171 39.192C57.8865 39.192 57.5985 39.288 57.3531 39.48C57.1185 39.6613 56.9371 39.9387 56.8091 40.312C56.6918 40.6747 56.6331 41.1333 56.6331 41.688C56.6331 42.5307 56.7718 43.16 57.0491 43.576C57.3371 43.992 57.7265 44.2 58.2171 44.2Z" fill="#49CE56"/>
</svg>
