<svg width="81" height="80" viewBox="0 0 81 80" fill="none" xmlns="http://www.w3.org/2000/svg">
<circle cx="40.875" cy="40" r="38.0165" stroke="#313037" stroke-width="3.96694"/>
<mask id="path-2-inside-1_1355_41226" fill="white">
<path d="M40.125 2C40.125 0.89543 41.0211 -0.00522029 42.1243 0.0499478C51.7834 0.532995 60.9673 4.50343 67.948 11.2618C75.4088 18.4851 79.7681 28.3267 80.1041 38.7058C80.44 49.085 76.7264 59.188 69.7483 66.8786C62.7702 74.5692 53.0748 79.2446 42.7119 79.9163C32.3491 80.5879 22.1313 77.203 14.2189 70.4774C6.30652 63.7518 1.31987 54.2127 0.313334 43.877C-0.6932 33.5414 2.35928 23.2194 8.82536 15.0935C14.8753 7.49062 23.4699 2.36797 32.9858 0.642203C34.0727 0.445097 35.0775 1.22256 35.2201 2.31788C35.3627 3.41321 34.5887 4.4111 33.5029 4.61424C25.0169 6.20199 17.3585 10.794 11.9553 17.5842C6.13585 24.8974 3.38862 34.1872 4.2945 43.4893C5.20038 52.7914 9.68837 61.3766 16.8095 67.4297C23.9306 73.4827 33.1267 76.5291 42.4533 75.9246C51.7798 75.3202 60.5057 71.1123 66.786 64.1907C73.0662 57.2692 76.4085 48.1765 76.1062 38.8353C75.8038 29.494 71.8804 20.6365 65.1657 14.1356C58.9312 8.09971 50.7441 4.53463 42.1242 4.0555C41.0213 3.99421 40.125 3.10457 40.125 2Z"/>
</mask>
<path d="M40.125 2C40.125 0.89543 41.0211 -0.00522029 42.1243 0.0499478C51.7834 0.532995 60.9673 4.50343 67.948 11.2618C75.4088 18.4851 79.7681 28.3267 80.1041 38.7058C80.44 49.085 76.7264 59.188 69.7483 66.8786C62.7702 74.5692 53.0748 79.2446 42.7119 79.9163C32.3491 80.5879 22.1313 77.203 14.2189 70.4774C6.30652 63.7518 1.31987 54.2127 0.313334 43.877C-0.6932 33.5414 2.35928 23.2194 8.82536 15.0935C14.8753 7.49062 23.4699 2.36797 32.9858 0.642203C34.0727 0.445097 35.0775 1.22256 35.2201 2.31788C35.3627 3.41321 34.5887 4.4111 33.5029 4.61424C25.0169 6.20199 17.3585 10.794 11.9553 17.5842C6.13585 24.8974 3.38862 34.1872 4.2945 43.4893C5.20038 52.7914 9.68837 61.3766 16.8095 67.4297C23.9306 73.4827 33.1267 76.5291 42.4533 75.9246C51.7798 75.3202 60.5057 71.1123 66.786 64.1907C73.0662 57.2692 76.4085 48.1765 76.1062 38.8353C75.8038 29.494 71.8804 20.6365 65.1657 14.1356C58.9312 8.09971 50.7441 4.53463 42.1242 4.0555C41.0213 3.99421 40.125 3.10457 40.125 2Z" stroke="#0094FF" stroke-width="7.93388" stroke-linejoin="round" mask="url(#path-2-inside-1_1355_41226)"/>
<path d="M27.3598 45.144C26.8798 45.144 26.3784 45.048 25.8558 44.856C25.3331 44.664 24.8744 44.3867 24.4798 44.024C24.3624 43.9387 24.2878 43.8373 24.2558 43.72C24.2344 43.6027 24.2398 43.4907 24.2718 43.384C24.3038 43.2667 24.3571 43.1707 24.4318 43.096C24.5171 43.0107 24.6184 42.968 24.7358 42.968C24.8531 42.9573 24.9758 43 25.1038 43.096C25.4664 43.4053 25.8398 43.6293 26.2238 43.768C26.6078 43.9067 26.9971 43.976 27.3918 43.976C28.0851 43.976 28.6718 43.8053 29.1518 43.464C29.6424 43.1227 30.0104 42.6053 30.2558 41.912C30.5118 41.2187 30.6398 40.36 30.6398 39.336V37.848H30.7838C30.7198 38.4453 30.5384 38.968 30.2398 39.416C29.9518 39.864 29.5784 40.2053 29.1198 40.44C28.6611 40.6747 28.1438 40.792 27.5677 40.792C26.9064 40.792 26.3198 40.6427 25.8078 40.344C25.2958 40.0453 24.8958 39.624 24.6078 39.08C24.3198 38.536 24.1758 37.9227 24.1758 37.24C24.1758 36.5253 24.3251 35.896 24.6238 35.352C24.9331 34.7973 25.3544 34.3653 25.8878 34.056C26.4318 33.736 27.0558 33.576 27.7598 33.576C28.6451 33.576 29.3971 33.7947 30.0158 34.232C30.6451 34.6587 31.1198 35.2827 31.4398 36.104C31.7598 36.9253 31.9198 37.9173 31.9198 39.08C31.9198 40.0613 31.8184 40.9253 31.6158 41.672C31.4131 42.4187 31.1144 43.0533 30.7198 43.576C30.3251 44.088 29.8451 44.4773 29.2798 44.744C28.7144 45.0107 28.0744 45.144 27.3598 45.144ZM27.8398 39.688C28.3198 39.688 28.7411 39.5813 29.1038 39.368C29.4664 39.1547 29.7491 38.8613 29.9518 38.488C30.1544 38.104 30.2558 37.6667 30.2558 37.176C30.2558 36.6853 30.1544 36.2533 29.9518 35.88C29.7491 35.5067 29.4664 35.2133 29.1038 35C28.7411 34.7867 28.3198 34.68 27.8398 34.68C27.3704 34.68 26.9544 34.7867 26.5918 35C26.2398 35.2133 25.9571 35.5067 25.7438 35.88C25.5411 36.2533 25.4398 36.6853 25.4398 37.176C25.4398 37.6667 25.5411 38.104 25.7438 38.488C25.9571 38.8613 26.2398 39.1547 26.5918 39.368C26.9544 39.5813 27.3704 39.688 27.8398 39.688ZM37.7375 45.144C36.8948 45.144 36.1695 45.0213 35.5615 44.776C34.9642 44.5307 34.5055 44.1733 34.1855 43.704C33.8762 43.2347 33.7215 42.6693 33.7215 42.008C33.7215 41.4853 33.8282 41.0213 34.0415 40.616C34.2548 40.2 34.5535 39.864 34.9375 39.608C35.3215 39.352 35.7642 39.192 36.2655 39.128V39.368C35.5722 39.2187 35.0175 38.8933 34.6015 38.392C34.1962 37.88 33.9935 37.2773 33.9935 36.584C33.9935 35.944 34.1428 35.4053 34.4415 34.968C34.7508 34.52 35.1882 34.1787 35.7535 33.944C36.3188 33.6987 36.9802 33.576 37.7375 33.576C38.5055 33.576 39.1668 33.6987 39.7215 33.944C40.2868 34.1787 40.7242 34.52 41.0335 34.968C41.3428 35.4053 41.4975 35.944 41.4975 36.584C41.4975 37.0427 41.4015 37.4693 41.2095 37.864C41.0282 38.248 40.7668 38.568 40.4255 38.824C40.0842 39.08 39.6842 39.256 39.2255 39.352V39.128C39.9828 39.2347 40.5908 39.5493 41.0495 40.072C41.5188 40.584 41.7535 41.2293 41.7535 42.008C41.7535 42.6693 41.5935 43.2347 41.2735 43.704C40.9642 44.1733 40.5055 44.5307 39.8975 44.776C39.3002 45.0213 38.5802 45.144 37.7375 45.144ZM37.7375 44.056C38.6442 44.056 39.3268 43.88 39.7855 43.528C40.2548 43.176 40.4895 42.6427 40.4895 41.928C40.4895 41.224 40.2548 40.7013 39.7855 40.36C39.3268 40.008 38.6442 39.832 37.7375 39.832C36.8415 39.832 36.1588 40.008 35.6895 40.36C35.2202 40.7013 34.9855 41.224 34.9855 41.928C34.9855 42.6427 35.2202 43.176 35.6895 43.528C36.1588 43.88 36.8415 44.056 37.7375 44.056ZM37.7375 38.744C38.2602 38.744 38.7028 38.664 39.0655 38.504C39.4388 38.3333 39.7268 38.0933 39.9295 37.784C40.1322 37.4747 40.2335 37.112 40.2335 36.696C40.2335 36.056 40.0095 35.56 39.5615 35.208C39.1242 34.8453 38.5162 34.664 37.7375 34.664C36.9588 34.664 36.3508 34.8453 35.9135 35.208C35.4762 35.56 35.2575 36.056 35.2575 36.696C35.2575 37.336 35.4762 37.8373 35.9135 38.2C36.3508 38.5627 36.9588 38.744 37.7375 38.744ZM47.3313 45.016C47.2566 45.1547 47.1659 45.2453 47.0593 45.288C46.9526 45.3413 46.8459 45.352 46.7393 45.32C46.6326 45.2987 46.5419 45.2453 46.4673 45.16C46.3926 45.0853 46.3446 44.9893 46.3233 44.872C46.3126 44.7547 46.3446 44.6267 46.4193 44.488L52.5953 33.736C52.6699 33.5973 52.7606 33.5067 52.8673 33.464C52.9739 33.4107 53.0806 33.4 53.1873 33.432C53.2939 33.4533 53.3846 33.5067 53.4593 33.592C53.5339 33.6773 53.5766 33.7787 53.5873 33.896C53.6086 34.0133 53.5819 34.136 53.5073 34.264L47.3313 45.016ZM46.1473 40.488C45.2939 40.488 44.6273 40.184 44.1473 39.576C43.6673 38.968 43.4273 38.12 43.4273 37.032C43.4273 36.3067 43.5339 35.688 43.7473 35.176C43.9713 34.664 44.2859 34.2747 44.6913 34.008C45.0966 33.7307 45.5819 33.592 46.1473 33.592C46.9899 33.592 47.6513 33.896 48.1313 34.504C48.6219 35.1013 48.8673 35.944 48.8673 37.032C48.8673 37.7573 48.7553 38.376 48.5313 38.888C48.3179 39.4 48.0086 39.7947 47.6033 40.072C47.1979 40.3493 46.7126 40.488 46.1473 40.488ZM46.1473 39.544C46.4779 39.544 46.7606 39.448 46.9953 39.256C47.2406 39.064 47.4273 38.7813 47.5553 38.408C47.6833 38.0347 47.7473 37.576 47.7473 37.032C47.7473 36.2 47.6033 35.576 47.3153 35.16C47.0273 34.744 46.6379 34.536 46.1473 34.536C45.8166 34.536 45.5286 34.632 45.2833 34.824C45.0486 35.0053 44.8673 35.2827 44.7393 35.656C44.6113 36.0187 44.5473 36.4773 44.5473 37.032C44.5473 37.864 44.6859 38.4933 44.9633 38.92C45.2513 39.336 45.6459 39.544 46.1473 39.544ZM53.7953 45.144C52.9526 45.144 52.2859 44.84 51.7953 44.232C51.3153 43.624 51.0753 42.776 51.0753 41.688C51.0753 40.9627 51.1819 40.344 51.3953 39.832C51.6193 39.32 51.9339 38.9307 52.3393 38.664C52.7553 38.3867 53.2406 38.248 53.7953 38.248C54.6486 38.248 55.3153 38.552 55.7953 39.16C56.2753 39.7573 56.5153 40.6 56.5153 41.688C56.5153 42.4133 56.4086 43.0373 56.1953 43.56C55.9819 44.072 55.6726 44.4667 55.2673 44.744C54.8619 45.0107 54.3713 45.144 53.7953 45.144ZM53.7953 44.2C54.1366 44.2 54.4246 44.1093 54.6593 43.928C54.8939 43.736 55.0753 43.4533 55.2033 43.08C55.3313 42.7067 55.3953 42.2427 55.3953 41.688C55.3953 40.856 55.2513 40.232 54.9633 39.816C54.6859 39.4 54.2966 39.192 53.7953 39.192C53.4646 39.192 53.1766 39.288 52.9313 39.48C52.6966 39.6613 52.5153 39.9387 52.3873 40.312C52.2699 40.6747 52.2113 41.1333 52.2113 41.688C52.2113 42.5307 52.3499 43.16 52.6273 43.576C52.9153 43.992 53.3046 44.2 53.7953 44.2Z" fill="white"/>
</svg>
