<svg width="81" height="80" viewBox="0 0 81 80" fill="none" xmlns="http://www.w3.org/2000/svg">
<mask id="path-1-inside-1_1355_41228" fill="white">
<path d="M40.125 2C40.125 0.89543 41.0211 -0.00522029 42.1243 0.0499478C51.7834 0.532995 60.9673 4.50343 67.948 11.2618C75.4088 18.4851 79.7681 28.3267 80.1041 38.7058C80.44 49.085 76.7264 59.188 69.7483 66.8786C62.7702 74.5692 53.0748 79.2446 42.7119 79.9163C32.3491 80.5879 22.1313 77.203 14.2189 70.4774C6.30652 63.7518 1.31987 54.2127 0.313334 43.877C-0.6932 33.5414 2.35928 23.2194 8.82536 15.0935C14.8753 7.49062 23.4699 2.36797 32.9858 0.642203C34.0727 0.445097 35.0775 1.22256 35.2201 2.31788C35.3627 3.41321 34.5887 4.4111 33.5029 4.61424C25.0169 6.20199 17.3585 10.794 11.9553 17.5842C6.13585 24.8974 3.38862 34.1872 4.2945 43.4893C5.20038 52.7914 9.68837 61.3766 16.8095 67.4297C23.9306 73.4827 33.1267 76.5291 42.4533 75.9246C51.7798 75.3202 60.5057 71.1123 66.786 64.1907C73.0662 57.2692 76.4085 48.1765 76.1062 38.8353C75.8038 29.494 71.8804 20.6365 65.1657 14.1356C58.9312 8.09971 50.7441 4.53463 42.1242 4.0555C41.0213 3.99421 40.125 3.10457 40.125 2Z"/>
</mask>
<path d="M40.125 2C40.125 0.89543 41.0211 -0.00522029 42.1243 0.0499478C51.7834 0.532995 60.9673 4.50343 67.948 11.2618C75.4088 18.4851 79.7681 28.3267 80.1041 38.7058C80.44 49.085 76.7264 59.188 69.7483 66.8786C62.7702 74.5692 53.0748 79.2446 42.7119 79.9163C32.3491 80.5879 22.1313 77.203 14.2189 70.4774C6.30652 63.7518 1.31987 54.2127 0.313334 43.877C-0.6932 33.5414 2.35928 23.2194 8.82536 15.0935C14.8753 7.49062 23.4699 2.36797 32.9858 0.642203C34.0727 0.445097 35.0775 1.22256 35.2201 2.31788C35.3627 3.41321 34.5887 4.4111 33.5029 4.61424C25.0169 6.20199 17.3585 10.794 11.9553 17.5842C6.13585 24.8974 3.38862 34.1872 4.2945 43.4893C5.20038 52.7914 9.68837 61.3766 16.8095 67.4297C23.9306 73.4827 33.1267 76.5291 42.4533 75.9246C51.7798 75.3202 60.5057 71.1123 66.786 64.1907C73.0662 57.2692 76.4085 48.1765 76.1062 38.8353C75.8038 29.494 71.8804 20.6365 65.1657 14.1356C58.9312 8.09971 50.7441 4.53463 42.1242 4.0555C41.0213 3.99421 40.125 3.10457 40.125 2Z" stroke="#0094FF" stroke-width="7.93388" stroke-linejoin="round" mask="url(#path-1-inside-1_1355_41228)"/>
</svg>
