<svg width="60" height="60" viewBox="0 0 60 60" fill="none" xmlns="http://www.w3.org/2000/svg">
<path d="M54.3732 14.8668L39.8649 0.35871C39.6353 0.129023 39.3238 0 38.999 0H11.2166C7.93527 0 5.26562 2.66976 5.26562 5.95124V54.0489C5.26562 57.3302 7.93527 60 11.2167 60H48.7808C52.0621 60 54.7319 57.3304 54.7319 54.0489V15.7327C54.7318 15.408 54.6028 15.0965 54.3732 14.8668ZM40.2238 4.18101H40.2239L50.5511 14.5083H43.7259C42.7903 14.5083 41.9107 14.1439 41.2493 13.4825C40.588 12.8212 40.2237 11.9417 40.2238 11.0062V4.18101ZM52.2829 54.0488C52.2828 55.9799 50.7118 57.5509 48.7808 57.5509H11.2166C9.2855 57.5509 7.71449 55.9799 7.71449 54.0488V5.95124C7.71461 4.02011 9.28562 2.44898 11.2166 2.44898H37.7749V11.0061C37.7747 12.5958 38.3937 14.0902 39.5177 15.2142C40.6417 16.3383 42.1363 16.9572 43.726 16.9572H52.2829V54.0488Z" fill="#8998B8"/>
<path d="M44.1654 24.4978H15.8339C15.1576 24.4978 14.6094 25.046 14.6094 25.7223V42.4147C14.6094 43.091 15.1576 43.6392 15.8339 43.6392H44.1654C44.8417 43.6392 45.3899 43.091 45.3899 42.4147V25.7223C45.3899 25.0461 44.8416 24.4978 44.1654 24.4978ZM28.7751 41.1903H17.0582V38.0764H28.7751V41.1903ZM28.7751 35.6274H17.0582V32.5095H28.7751V35.6274ZM28.7751 30.0606H17.0582V26.9467H28.7751V30.0606ZM42.9409 41.1903H31.2241V38.0764H42.9409V41.1903ZM42.9409 35.6274H31.2241V32.5095H42.9409V35.6274ZM42.9409 30.0606H31.2241V26.9467H42.9409V30.0606Z" fill="#8998B8"/>
<path d="M16.3821 46.0381H15.8339C15.1576 46.0381 14.6094 46.5863 14.6094 47.2626C14.6094 47.9389 15.1576 48.4871 15.8339 48.4871H16.3821C17.0584 48.4871 17.6066 47.9389 17.6066 47.2626C17.6066 46.5864 17.0584 46.0381 16.3821 46.0381Z" fill="#8998B8"/>
<path d="M32.2353 46.0381H20.3417C19.6654 46.0381 19.1172 46.5863 19.1172 47.2626C19.1172 47.9389 19.6654 48.4871 20.3417 48.4871H32.2353C32.9115 48.4871 33.4597 47.9389 33.4597 47.2626C33.4597 46.5864 32.9115 46.0381 32.2353 46.0381Z" fill="#8998B8"/>
</svg>
