<svg width="14" height="14" viewBox="0 0 14 14" fill="none" xmlns="http://www.w3.org/2000/svg">
<path d="M3.28634 6.12476H10.6993C11.3882 6.12476 11.7324 5.31047 11.2465 4.83632L7.54144 1.0957C7.39004 0.947879 7.19221 0.874023 6.9945 0.874023C6.79692 0.874023 6.59991 0.947879 6.4498 1.0957L2.7391 4.83687C2.25326 5.30992 2.59728 6.12476 3.28634 6.12476Z" fill="#767485"/>
<path d="M3.28634 8.05004H10.6993C11.3882 8.05004 11.7324 8.86434 11.2465 9.33848L7.54144 13.0791C7.39004 13.2269 7.19221 13.3008 6.9945 13.3008C6.79692 13.3008 6.59991 13.2269 6.4498 13.0791L2.7391 9.33793C2.25326 8.86489 2.59728 8.05004 3.28634 8.05004Z" fill="#767485"/>
</svg>
