<svg width="31" height="24" viewBox="0 0 31 24" fill="none" xmlns="http://www.w3.org/2000/svg">
<path d="M9.55897 11.8561L1.55891 11.8566M1.55891 11.8566L4.55892 14.8572M1.55891 11.8566L4.55892 8.85742" stroke="white" strokeLinecap="round" strokeLinejoin="round"/>
<path d="M15.5469 18.0324C15.5469 18.7248 16.1102 19.2882 16.8027 19.2882H25.1748C25.8672 19.2882 26.4306 18.7248 26.4306 18.0324V17.9766H15.5469V18.0324Z" fill="white"/>
<path d="M18.8966 7.92915V5.24414L15.793 8.34776H18.478C18.7088 8.34776 18.8966 8.15997 18.8966 7.92915Z" fill="white"/>
<path d="M26.4306 6.25581C26.4306 5.56336 25.8672 5 25.1748 5H19.7329V7.93023C19.7329 8.62269 19.1696 9.18605 18.4771 9.18605H15.5469V10.7209H26.4306V6.25581Z" fill="white"/>
<path d="M27.1283 11.5586H15.5469V17.14H27.1283C27.3595 17.14 27.5469 16.9526 27.5469 16.7214V11.9772C27.5469 11.746 27.3595 11.5586 27.1283 11.5586ZM20.0058 15.3746C19.9668 15.4211 19.9244 15.4648 19.8799 15.5044C19.6522 15.7072 19.3601 15.8144 19.0352 15.8144C18.2274 15.8144 17.5701 15.1572 17.5701 14.3493C17.5701 13.5414 18.2274 12.8842 19.0352 12.8842C19.3288 12.8842 19.6122 12.9708 19.8547 13.1346C20.0143 13.2425 20.0563 13.4593 19.9484 13.6189C19.8406 13.7786 19.6237 13.8206 19.4641 13.7127C19.3374 13.6271 19.1891 13.5818 19.0352 13.5818C18.6121 13.5818 18.2678 13.9261 18.2678 14.3493C18.2678 14.7725 18.6121 15.1167 19.0352 15.1167C19.1885 15.1167 19.3165 15.0719 19.4159 14.9834C19.4353 14.9662 19.4539 14.9469 19.4712 14.9263C19.595 14.7787 19.815 14.7594 19.9626 14.8832C20.1103 15.007 20.1296 15.227 20.0058 15.3746ZM22.6661 15.0441C22.5864 15.4905 22.163 15.8144 21.6594 15.8144C21.258 15.8144 20.8809 15.6523 20.6247 15.3697C20.4953 15.2269 20.5062 15.0063 20.6489 14.8769C20.7917 14.7476 21.0123 14.7584 21.1416 14.9011C21.264 15.0361 21.4576 15.1168 21.6594 15.1168C21.8538 15.1168 21.9652 15.0002 21.9792 14.9215C21.9958 14.8291 21.8624 14.7448 21.7321 14.6967C21.3845 14.5684 21.0757 14.431 21.0627 14.4252C21.0459 14.4177 21.0297 14.4089 21.0143 14.3989C20.7562 14.2306 20.6233 13.9356 20.6673 13.629C20.7139 13.304 20.9504 13.0397 21.2844 12.9391C21.898 12.7543 22.4434 13.0775 22.5637 13.3026C22.6546 13.4725 22.5905 13.6838 22.4206 13.7747C22.2706 13.855 22.088 13.8143 21.9849 13.6865C21.9452 13.6576 21.7469 13.5284 21.4857 13.6071C21.4123 13.6292 21.3657 13.6733 21.3579 13.7281C21.3547 13.7502 21.3568 13.7795 21.3809 13.803C21.4684 13.8411 21.7124 13.9458 21.9736 14.0421C22.5764 14.2644 22.7265 14.7055 22.6661 15.0441ZM25.5058 13.3471L24.7769 15.5414C24.7215 15.7044 24.5707 15.8132 24.4009 15.8144C24.3999 15.8144 24.399 15.8144 24.3981 15.8144C24.2294 15.8144 24.0785 15.708 24.0219 15.5488L23.2578 13.3474C23.1946 13.1654 23.2909 12.9666 23.4729 12.9035C23.6548 12.8404 23.8537 12.9366 23.9168 13.1186L24.3919 14.4872L24.8437 13.1271C24.9044 12.9443 25.1019 12.8453 25.2847 12.9061C25.4676 12.9668 25.5666 13.1642 25.5058 13.3471Z" fill="white"/>
</svg>
