<svg width="36" height="37" viewBox="0 0 36 37" fill="none" xmlns="http://www.w3.org/2000/svg">
<path d="M26.6525 11.6276C26.1694 9.68399 25.0551 7.95855 23.4865 6.72524C21.9179 5.49194 19.9849 4.82148 17.9944 4.82031C16.004 4.81915 14.0702 5.48736 12.5002 6.71882C10.9302 7.95029 9.81387 9.67443 9.32856 11.6175C7.03938 11.8337 4.92094 12.9293 3.41328 14.6766C1.90562 16.4239 1.12462 18.6886 1.23252 21.0004C1.34041 23.3122 2.3289 25.4933 3.99267 27.0906C5.65643 28.688 7.86758 29.5788 10.1668 29.5781H13.5198C13.8163 29.5781 14.1005 29.4596 14.3101 29.2486C14.5197 29.0376 14.6375 28.7514 14.6375 28.4531C14.6375 28.1547 14.5197 27.8686 14.3101 27.6576C14.1005 27.4466 13.8163 27.3281 13.5198 27.3281H10.1668C9.28617 27.3307 8.41364 27.1586 7.59904 26.8218C6.78445 26.485 6.04374 25.9899 5.41921 25.365C4.15792 24.1028 3.44642 22.388 3.44123 20.5978C3.43605 18.8076 4.1376 17.0886 5.39155 15.819C6.64551 14.5495 8.34915 13.8333 10.1277 13.8281C10.4145 13.8498 10.6991 13.7635 10.9262 13.586C11.1534 13.4085 11.307 13.1524 11.3571 12.8673C11.5847 11.2609 12.3805 9.79104 13.5982 8.7277C14.8159 7.66436 16.3739 7.07894 17.986 7.07894C19.5982 7.07894 21.1561 7.66436 22.3739 8.7277C23.5916 9.79104 24.3874 11.2609 24.615 12.8673C24.6734 13.1425 24.8249 13.3887 25.0436 13.5639C25.2624 13.7391 25.5347 13.8325 25.8142 13.8281C27.5928 13.8281 29.2985 14.5392 30.5561 15.8051C31.8137 17.071 32.5202 18.7879 32.5202 20.5781C32.5202 22.3683 31.8137 24.0852 30.5561 25.351C29.2985 26.6169 27.5928 27.3281 25.8142 27.3281H22.4612C22.1648 27.3281 21.8805 27.4466 21.6709 27.6576C21.4613 27.8686 21.3435 28.1547 21.3435 28.4531C21.3435 28.7514 21.4613 29.0376 21.6709 29.2486C21.8805 29.4596 22.1648 29.5781 22.4612 29.5781H25.8142C28.0966 29.554 30.2835 28.6523 31.9267 27.0576C33.5699 25.463 34.545 23.2961 34.6521 21.0011C34.7593 18.7062 33.9905 16.4568 32.5031 14.714C31.0158 12.9713 28.9226 11.867 26.6525 11.6276Z" fill="#0094FF"/>
<path d="M22.7912 21.3733C23.002 21.5782 23.2844 21.6916 23.5774 21.689C23.8705 21.6865 24.1508 21.5681 24.358 21.3596C24.5652 21.151 24.6828 20.8688 24.6853 20.5738C24.6879 20.2789 24.5752 19.9947 24.3716 19.7825L18.7833 14.1575C18.5737 13.9466 18.2894 13.8281 17.9931 13.8281C17.6967 13.8281 17.4125 13.9466 17.2029 14.1575L11.6145 19.7825C11.4109 19.9947 11.2983 20.2789 11.3008 20.5738C11.3034 20.8688 11.4209 21.151 11.6281 21.3596C11.8354 21.5681 12.1157 21.6865 12.4087 21.689C12.7018 21.6916 12.9841 21.5782 13.1949 21.3733L16.8754 17.6686V31.8279C16.8754 32.1263 16.9932 32.4124 17.2028 32.6234C17.4124 32.8344 17.6966 32.9529 17.9931 32.9529C18.2895 32.9529 18.5738 32.8344 18.7834 32.6234C18.993 32.4124 19.1107 32.1263 19.1107 31.8279V17.6686L22.7912 21.3733Z" fill="#0094FF"/>
</svg>
