<svg xmlns="http://www.w3.org/2000/svg" width="20" height="20" viewBox="0 0 20 20" fill="none">
  <g clip-path="url(#clip0_1449_37013)">
    <path d="M12.5794 19.9996H6.24997C6.04279 19.9996 5.84409 19.9173 5.69759 19.7708C5.5511 19.6243 5.46879 19.4256 5.46879 19.2185C5.46879 19.0113 5.5511 18.8126 5.69759 18.6661C5.84409 18.5196 6.04279 18.4373 6.24997 18.4373H12.5782C14.1178 18.4155 15.587 17.7885 16.6681 16.692C17.7491 15.5956 18.3552 14.1177 18.3552 12.5779C18.3552 11.0381 17.7491 9.56016 16.6681 8.46368C15.587 7.3672 14.1178 6.74027 12.5782 6.71845H7.18762C6.77324 6.71783 6.37604 6.55286 6.08314 6.25975C5.79024 5.96663 5.62558 5.5693 5.62526 5.15492V1.56433L1.79232 5.38198C1.7194 5.45466 1.66154 5.54102 1.62206 5.63611C1.58259 5.7312 1.56226 5.83314 1.56226 5.9361C1.56226 6.03906 1.58259 6.141 1.62206 6.23609C1.66154 6.33117 1.7194 6.41754 1.79232 6.49022L5.61938 10.309V9.45257C5.61938 9.24539 5.70168 9.04669 5.84818 8.90019C5.99468 8.7537 6.19338 8.67139 6.40056 8.67139C6.60774 8.67139 6.80643 8.7537 6.95293 8.90019C7.09943 9.04669 7.18173 9.24539 7.18173 9.45257V10.309C7.1812 10.6183 7.08907 10.9206 6.91697 11.1776C6.74487 11.4346 6.50051 11.6349 6.21472 11.7532C5.92893 11.8714 5.61451 11.9025 5.31111 11.8423C5.00772 11.7821 4.72895 11.6334 4.50997 11.4149L0.688793 7.5961C0.470455 7.3783 0.297228 7.11956 0.179034 6.83471C0.0608393 6.54986 0 6.2445 0 5.9361C0 5.6277 0.0608393 5.32233 0.179034 5.03748C0.297228 4.75263 0.470455 4.4939 0.688793 4.2761L4.51585 0.457276C4.7349 0.238762 5.01378 0.0900399 5.31728 0.0298827C5.62079 -0.0302745 5.93531 0.00082953 6.22115 0.119269C6.50699 0.237708 6.75133 0.438173 6.92334 0.69536C7.09535 0.952548 7.18731 1.25493 7.18762 1.56433V5.15492H12.5782C14.5467 5.15492 16.4346 5.93692 17.8266 7.32888C19.2186 8.72084 20.0006 10.6087 20.0006 12.5773C20.0006 14.5458 19.2186 16.4337 17.8266 17.8257C16.4346 19.2176 14.5467 19.9996 12.5782 19.9996H12.5794Z" fill="#767485"/>
  </g>
  <defs>
    <clipPath id="clip0_1449_37013">
      <rect width="20" height="20" fill="white"/>
    </clipPath>
  </defs>
</svg>