<svg xmlns="http://www.w3.org/2000/svg" width="20" height="20" viewBox="0 0 20 20" fill="none">
  <g clip-path="url(#clip0_1449_37015)">
    <path d="M7.42062 19.9996H13.75C13.9572 19.9996 14.1559 19.9173 14.3024 19.7708C14.4489 19.6243 14.5312 19.4256 14.5312 19.2185C14.5312 19.0113 14.4489 18.8126 14.3024 18.6661C14.1559 18.5196 13.9572 18.4373 13.75 18.4373H7.42179C5.88216 18.4155 4.41298 17.7885 3.33193 16.692C2.25087 15.5956 1.64482 14.1177 1.64482 12.5779C1.64482 11.0381 2.25087 9.56016 3.33193 8.46368C4.41298 7.3672 5.88216 6.74027 7.42179 6.71845H12.8124C13.2268 6.71783 13.624 6.55286 13.9169 6.25975C14.2098 5.96663 14.3744 5.5693 14.3747 5.15492V1.56433L18.2077 5.38198C18.2806 5.45466 18.3385 5.54102 18.3779 5.63611C18.4174 5.7312 18.4377 5.83314 18.4377 5.9361C18.4377 6.03906 18.4174 6.141 18.3779 6.23609C18.3385 6.33117 18.2806 6.41754 18.2077 6.49022L14.3806 10.309V9.45257C14.3806 9.24539 14.2983 9.04669 14.1518 8.90019C14.0053 8.7537 13.8066 8.67139 13.5994 8.67139C13.3923 8.67139 13.1936 8.7537 13.0471 8.90019C12.9006 9.04669 12.8183 9.24539 12.8183 9.45257V10.309C12.8188 10.6183 12.9109 10.9206 13.083 11.1776C13.2551 11.4346 13.4995 11.6349 13.7853 11.7532C14.0711 11.8714 14.3855 11.9025 14.6889 11.8423C14.9923 11.7821 15.271 11.6334 15.49 11.4149L19.3112 7.5961C19.5295 7.3783 19.7028 7.11956 19.821 6.83471C19.9392 6.54986 20 6.2445 20 5.9361C20 5.6277 19.9392 5.32233 19.821 5.03748C19.7028 4.75263 19.5295 4.4939 19.3112 4.2761L15.4841 0.457276C15.2651 0.238762 14.9862 0.0900399 14.6827 0.0298827C14.3792 -0.0302745 14.0647 0.00082953 13.7789 0.119269C13.493 0.237708 13.2487 0.438173 13.0767 0.69536C12.9047 0.952548 12.8127 1.25493 12.8124 1.56433V5.15492H7.42179C5.45327 5.15492 3.56536 5.93692 2.1734 7.32888C0.781439 8.72084 -0.000556946 10.6087 -0.000556946 12.5773C-0.000556946 14.5458 0.781439 16.4337 2.1734 17.8257C3.56536 19.2176 5.45327 19.9996 7.42179 19.9996H7.42062Z" fill="#767485"/>
  </g>
  <defs>
    <clipPath id="clip0_1449_37015">
      <rect width="20" height="20" fill="white" transform="matrix(-1 0 0 1 20 0)"/>
    </clipPath>
  </defs>
</svg>