<svg width="14" height="18" viewBox="0 0 14 18" fill="none" xmlns="http://www.w3.org/2000/svg">
<path d="M10.9659 8.71301C11.6667 8.42221 12.2668 7.91158 12.6858 7.24954C13.1049 6.58749 13.3229 5.80565 13.3106 5.00875C13.3359 4.32751 13.1985 3.65052 12.9111 3.04044C12.6237 2.43037 12.1956 1.90691 11.6665 1.51852C10.6203 0.817427 9.40006 0.463739 8.16255 0.502939H0.25V3.44679H1.6405V15.0504H0.25V17.9952H7.68351C9.18993 18.048 10.681 17.6603 11.993 16.8747C12.6377 16.4483 13.1632 15.8474 13.5151 15.1339C13.867 14.4204 14.0326 13.6204 13.9947 12.8165C14.026 11.8646 13.7395 10.9315 13.1856 10.181C12.6317 9.43059 11.8458 8.91081 10.9659 8.71301ZM7.2958 7.42989H4.91124V3.44679H7.04899C9.17215 3.44679 10.0379 3.99626 10.0379 5.34214C10.034 7.0677 8.5454 7.42989 7.2958 7.42989ZM4.91124 10.4612H7.43767C9.76975 10.4612 10.723 11.1053 10.723 12.6838C10.723 14.2622 9.57929 15.0504 7.32203 15.0504H4.91124V10.4612Z" fill="#0094FF"/>
</svg>
