<svg width="20" height="20" viewBox="0 0 20 20" fill="none" xmlns="http://www.w3.org/2000/svg">
<path d="M15.7337 3.125H8.01706C7.67539 3.125 7.40039 2.84167 7.40039 2.5C7.40039 2.15833 7.68372 1.875 8.02539 1.875H15.7337C16.0754 1.875 16.3587 2.15833 16.3587 2.5C16.3587 2.84167 16.0754 3.125 15.7337 3.125Z" fill="#0094FF"/>
<path d="M11.9833 18.125H4.2666C3.92493 18.125 3.6416 17.8417 3.6416 17.5C3.6416 17.1583 3.92493 16.875 4.2666 16.875H11.9749C12.3166 16.875 12.5999 17.1583 12.5999 17.5C12.5999 17.8417 12.3249 18.125 11.9833 18.125Z" fill="#0094FF"/>
<path d="M8.12476 18.1267C8.07476 18.1267 8.02476 18.1184 7.97476 18.11C7.64142 18.0267 7.43309 17.685 7.51642 17.3517L11.2664 2.35171C11.3498 2.01838 11.6831 1.81004 12.0248 1.89338C12.3581 1.97671 12.5664 2.31838 12.4831 2.65171L8.73309 17.6517C8.65809 17.935 8.40809 18.1267 8.12476 18.1267Z" fill="#0094FF"/>
</svg>
