<svg xmlns="http://www.w3.org/2000/svg" width="20" height="20" viewBox="0 0 20 20" fill="none">
  <path d="M14.4659 9.46301C15.1667 9.17221 15.7668 8.66158 16.1858 7.99954C16.6049 7.33749 16.8229 6.55565 16.8106 5.75875C16.8359 5.07751 16.6985 4.40052 16.4111 3.79044C16.1237 3.18037 15.6956 2.65691 15.1665 2.26852C14.1203 1.56743 12.9001 1.21374 11.6626 1.25294H3.75V4.19679H5.1405V15.8004H3.75V18.7452H11.1835C12.6899 18.798 14.181 18.4103 15.493 17.6247C16.1377 17.1983 16.6632 16.5974 17.0151 15.8839C17.367 15.1704 17.5326 14.3704 17.4947 13.5665C17.526 12.6146 17.2395 11.6815 16.6856 10.931C16.1317 10.1806 15.3458 9.66081 14.4659 9.46301ZM10.7958 8.17989H8.41124V4.19679H10.549C12.6722 4.19679 13.5379 4.74626 13.5379 6.09214C13.534 7.8177 12.0454 8.17989 10.7958 8.17989ZM8.41124 11.2112H10.9377C13.2697 11.2112 14.223 11.8553 14.223 13.4338C14.223 15.0122 13.0793 15.8004 10.822 15.8004H8.41124V11.2112Z" fill="#767485"/>
</svg>