<svg width="20" height="20" viewBox="0 0 20 20" fill="none" xmlns="http://www.w3.org/2000/svg">
<path d="M15.8337 18.125H4.16699C3.82533 18.125 3.54199 17.8417 3.54199 17.5C3.54199 17.1583 3.82533 16.875 4.16699 16.875H15.8337C16.1753 16.875 16.4587 17.1583 16.4587 17.5C16.4587 17.8417 16.1753 18.125 15.8337 18.125Z" fill="#0094FF"/>
<path d="M10.0003 14.7917C6.44199 14.7917 3.54199 11.8917 3.54199 8.33333V2.5C3.54199 2.15833 3.82533 1.875 4.16699 1.875C4.50866 1.875 4.79199 2.15833 4.79199 2.5V8.33333C4.79199 11.2083 7.12533 13.5417 10.0003 13.5417C12.8753 13.5417 15.2087 11.2083 15.2087 8.33333V2.5C15.2087 2.15833 15.492 1.875 15.8337 1.875C16.1753 1.875 16.4587 2.15833 16.4587 2.5V8.33333C16.4587 11.8917 13.5587 14.7917 10.0003 14.7917Z" fill="#0094FF"/>
</svg>
