<svg width="20" height="20" viewBox="0 0 20 20" fill="none" xmlns="http://www.w3.org/2000/svg">
<path d="M12.5784 19.9996H6.24899C6.04181 19.9996 5.84312 19.9173 5.69662 19.7708C5.55012 19.6243 5.46782 19.4256 5.46782 19.2185C5.46782 19.0113 5.55012 18.8126 5.69662 18.6661C5.84312 18.5196 6.04181 18.4373 6.24899 18.4373H12.5772C14.1169 18.4155 15.586 17.7885 16.6671 16.692C17.7481 15.5956 18.3542 14.1177 18.3542 12.5779C18.3542 11.0381 17.7481 9.56016 16.6671 8.46368C15.586 7.3672 14.1169 6.74027 12.5772 6.71845H7.18664C6.77227 6.71783 6.37506 6.55286 6.08216 6.25975C5.78927 5.96663 5.6246 5.5693 5.62429 5.15492V1.56433L1.79135 5.38198C1.71842 5.45466 1.66057 5.54102 1.62109 5.63611C1.58161 5.7312 1.56129 5.83314 1.56129 5.9361C1.56129 6.03906 1.58161 6.141 1.62109 6.23609C1.66057 6.33117 1.71842 6.41754 1.79135 6.49022L5.6184 10.309V9.45257C5.6184 9.24539 5.70071 9.04669 5.84721 8.90019C5.9937 8.7537 6.1924 8.67139 6.39958 8.67139C6.60676 8.67139 6.80546 8.7537 6.95196 8.90019C7.09845 9.04669 7.18076 9.24539 7.18076 9.45257V10.309C7.18022 10.6183 7.08809 10.9206 6.91599 11.1776C6.7439 11.4346 6.49954 11.6349 6.21375 11.7532C5.92795 11.8714 5.61353 11.9025 5.31014 11.8423C5.00674 11.7821 4.72797 11.6334 4.50899 11.4149L0.687817 7.5961C0.469478 7.3783 0.296251 7.11956 0.178057 6.83471C0.0598628 6.54986 -0.000976562 6.2445 -0.000976562 5.9361C-0.000976562 5.6277 0.0598628 5.32233 0.178057 5.03748C0.296251 4.75263 0.469478 4.4939 0.687817 4.2761L4.51488 0.457276C4.73393 0.238762 5.01281 0.0900399 5.31631 0.0298827C5.61981 -0.0302745 5.93433 0.00082953 6.22017 0.119269C6.50601 0.237708 6.75036 0.438173 6.92236 0.69536C7.09437 0.952548 7.18633 1.25493 7.18664 1.56433V5.15492H12.5772C14.5458 5.15492 16.4337 5.93692 17.8256 7.32888C19.2176 8.72084 19.9996 10.6087 19.9996 12.5773C19.9996 14.5458 19.2176 16.4337 17.8256 17.8257C16.4337 19.2176 14.5458 19.9996 12.5772 19.9996H12.5784Z" fill="#0094FF"/>
</svg>
