<svg
        width="15"
        height="18"
        viewBox="0 0 15 18"
        fill="none"
        xmlns="http://www.w3.org/2000/svg"
>
    <path d="M11.4659 8.46301C12.1667 8.1722 12.7668 7.66158 13.1858 6.99954C13.6049 6.33749 13.8229 5.55565 13.8106 4.75875C13.8359 4.07751 13.6985 3.40052 13.4111 2.79044C13.1237 2.18037 12.6956 1.65691 12.1665 1.26852C11.1203 0.567427 9.90006 0.213739 8.66255 0.252939H0.75V3.19679H2.1405V14.8004H0.75V17.7452H8.18351C9.68994 17.798 11.181 17.4103 12.493 16.6247C13.1377 16.1983 13.6632 15.5973 14.0151 14.8839C14.367 14.1704 14.5326 13.3704 14.4947 12.5665C14.526 11.6146 14.2395 10.6815 13.6856 9.93103C13.1317 9.18059 12.3458 8.66081 11.4659 8.46301ZM7.7958 7.17989H5.41125V3.19679H7.54899C9.67215 3.19679 10.5379 3.74626 10.5379 5.09213C10.534 6.8177 9.0454 7.17989 7.7958 7.17989ZM5.41125 10.2112H7.93767C10.2697 10.2112 11.223 10.8553 11.223 12.4338C11.223 14.0122 10.0793 14.8004 7.82203 14.8004H5.41125V10.2112Z" fill="#767485"/>
</svg>
