<svg width="14" height="14" viewBox="0 0 14 14" fill="none" xmlns="http://www.w3.org/2000/svg">
<path fill-rule="evenodd" clip-rule="evenodd" d="M10.1327 0.538034L10.1334 1.06277C12.2147 1.2139 13.5895 2.52784 13.5918 4.54283L13.6 10.4409C13.603 12.6378 12.1132 13.9895 9.72536 13.993L3.89253 14C1.51957 14.0028 0.0111947 12.6189 0.00821082 10.4157L5.02425e-06 4.58691C-0.0029789 2.55862 1.32338 1.24818 3.40466 1.07117L3.40392 0.546429C3.40317 0.238584 3.64934 0.00699966 3.97758 0.00699966C4.30581 0.00630001 4.55198 0.237184 4.55273 0.54503L4.55347 1.03478L8.9846 1.02919L8.98386 0.539433C8.98311 0.231587 9.22928 0.000702814 9.55751 1.57867e-06C9.87829 -0.000696485 10.1319 0.230188 10.1327 0.538034ZM1.14528 4.80192L12.4394 4.78793V4.54305C12.4074 3.0388 11.5927 2.2496 10.1306 2.13206L10.1314 2.67079C10.1314 2.97164 9.87848 3.21022 9.5577 3.21022C9.22947 3.21092 8.98255 2.97304 8.98255 2.67219L8.98181 2.10547L4.55068 2.11107L4.55143 2.67708C4.55143 2.97863 4.306 3.21651 3.97777 3.21651C3.64954 3.21721 3.40262 2.98003 3.40262 2.67848L3.40187 2.13975C1.94721 2.27479 1.14229 3.06679 1.14453 4.58433L1.14528 4.80192ZM9.24218 7.98224V7.98994C9.24964 8.31178 9.53312 8.55595 9.87701 8.54896C10.2127 8.54126 10.4805 8.27469 10.4731 7.95285C10.4574 7.64501 10.1881 7.39383 9.85314 7.39453C9.50999 7.40153 9.24144 7.6604 9.24218 7.98224ZM9.85908 11.1237C9.51593 11.1167 9.23917 10.8515 9.23842 10.5297C9.23096 10.2079 9.50623 9.94129 9.84938 9.9336H9.85684C10.2075 9.9336 10.4917 10.1988 10.4917 10.5276C10.4924 10.8564 10.2089 11.123 9.85908 11.1237ZM6.17187 7.99303C6.18679 8.31487 6.47101 8.56604 6.81416 8.55205C7.14985 8.53735 7.41766 8.27149 7.40274 7.94965C7.39453 7.63481 7.11852 7.38993 6.78283 7.39063C6.43968 7.40462 6.17113 7.67119 6.17187 7.99303ZM6.81807 11.0911C6.47492 11.1051 6.19144 10.8539 6.17578 10.5321C6.17578 10.2103 6.44358 9.94438 6.78674 9.92969C7.12243 9.92899 7.39919 10.1739 7.40665 10.488C7.42231 10.8105 7.15376 11.0764 6.81807 11.0911ZM3.09765 8.01646C3.11257 8.3383 3.39679 8.59018 3.73994 8.57548C4.07563 8.56149 4.34344 8.29492 4.32778 7.97309C4.32032 7.65824 4.0443 7.41337 3.70787 7.41407C3.36471 7.42806 3.09691 7.69462 3.09765 8.01646ZM3.74385 11.095C3.4007 11.1097 3.11723 10.8578 3.10156 10.536C3.10081 10.2142 3.36937 9.94759 3.71252 9.9336C4.04821 9.9329 4.32497 10.1778 4.33243 10.4926C4.34809 10.8145 4.08029 11.081 3.74385 11.095Z" fill="#4285F4"/>
</svg>
