<svg width="8" height="6" viewBox="0 0 8 6" fill="none" xmlns="http://www.w3.org/2000/svg">
<path opacity="0.5" d="M3.246 5.77847C3.20733 5.74457 3.042 5.61656 2.906 5.49732C2.05067 4.79825 0.650667 2.97457 0.223333 2.02007C0.154667 1.87511 0.00933333 1.50862 0 1.31281C0 1.12518 0.048 0.946323 0.145333 0.775645C0.281333 0.562884 0.495333 0.392207 0.748 0.298685C0.923333 0.23848 1.448 0.144959 1.45733 0.144959C2.03133 0.0514369 2.964 0 3.99467 0C4.97667 0 5.87133 0.0514369 6.454 0.128008C6.46333 0.136775 7.11533 0.230297 7.33867 0.332586C7.74667 0.520214 8 0.886702 8 1.27891V1.31281C7.99 1.56824 7.73667 2.10541 7.72733 2.10541C7.29933 3.00848 5.968 4.79006 5.08333 5.50609C5.08333 5.50609 4.856 5.70775 4.714 5.79542C4.51 5.9322 4.25733 6 4.00467 6C3.72267 6 3.46 5.92343 3.246 5.77847Z" fill="white"/>
</svg>
