<svg
        width="21"
        height="20"
        viewBox="0 0 21 20"
        fill="none"
        xmlns="http://www.w3.org/2000/svg"
>
    <path d="M14.7462 10H5.99677C5.83108 10 5.67219 10.0658 5.55503 10.183C5.43788 10.3001 5.37207 10.459 5.37207 10.6247C5.37207 11.9508 5.89884 13.2225 6.83652 14.1602C7.7742 15.0979 9.04599 15.6247 10.3721 15.6247C11.6982 15.6247 12.9699 15.0979 13.9076 14.1602C14.8453 13.2225 15.3721 11.9508 15.3721 10.6247C15.3721 10.5426 15.3559 10.4613 15.3244 10.3854C15.2929 10.3095 15.2468 10.2406 15.1887 10.1826C15.1305 10.1245 15.0615 10.0785 14.9856 10.0472C14.9097 10.0159 14.8283 9.99985 14.7462 10ZM10.3709 14.3753C9.48427 14.376 8.6261 14.0625 7.94872 13.4905C7.27135 12.9184 6.8186 12.1248 6.67088 11.2506H14.0709C13.9232 12.1248 13.4704 12.9184 12.793 13.4905C12.1157 14.0625 11.2575 14.376 10.3709 14.3753Z" fill="#767485"/>
    <path d="M10.3711 0C8.39328 0 6.45989 0.58649 4.8154 1.6853C3.1709 2.78412 1.88918 4.3459 1.1323 6.17317C0.375427 8.00043 0.177393 10.0111 0.563245 11.9509C0.949098 13.8907 1.90151 15.6725 3.30003 17.0711C4.69855 18.4696 6.48038 19.422 8.42019 19.8079C10.36 20.1937 12.3707 19.9957 14.1979 19.2388C16.0252 18.4819 17.587 17.2002 18.6858 15.5557C19.7846 13.9112 20.3711 11.9778 20.3711 10C20.3711 7.34783 19.3175 4.8043 17.4422 2.92893C15.5668 1.05357 13.0233 0 10.3711 0ZM10.3711 18.7494C8.64063 18.7494 6.94902 18.2363 5.51019 17.2749C4.07135 16.3135 2.94992 14.947 2.2877 13.3483C1.62547 11.7495 1.45221 9.99029 1.7898 8.29307C2.1274 6.59585 2.9607 5.03686 4.18433 3.81323C5.40796 2.5896 6.96695 1.7563 8.66417 1.41871C10.3614 1.08111 12.1206 1.25438 13.7194 1.9166C15.3181 2.57882 16.6846 3.70025 17.646 5.13909C18.6074 6.57792 19.1205 8.26953 19.1205 10C19.1205 12.3205 18.1987 14.5459 16.5579 16.1868C14.917 17.8276 12.6916 18.7494 10.3711 18.7494Z" fill="#767485"/>
    <path d="M7.2571 8.05522C7.9023 8.05522 8.42534 7.53218 8.42534 6.88699C8.42534 6.24179 7.9023 5.71875 7.2571 5.71875C6.6119 5.71875 6.08887 6.24179 6.08887 6.88699C6.08887 7.53218 6.6119 8.05522 7.2571 8.05522Z" fill="#767485"/>
    <path d="M13.4856 8.05522C14.1308 8.05522 14.6539 7.53218 14.6539 6.88699C14.6539 6.24179 14.1308 5.71875 13.4856 5.71875C12.8404 5.71875 12.3174 6.24179 12.3174 6.88699C12.3174 7.53218 12.8404 8.05522 13.4856 8.05522Z" fill="#767485"/>
</svg>
