<svg width="6" height="6" viewBox="0 0 6 6" fill="none" xmlns="http://www.w3.org/2000/svg">
<path opacity="0.5" d="M3.5655 0.684608C3.5945 0.712859 3.7185 0.819532 3.8205 0.918899C4.462 1.50146 5.512 3.02119 5.8325 3.81661C5.884 3.93741 5.993 4.24282 6 4.40599C6 4.56235 5.964 4.7114 5.891 4.85363C5.789 5.03093 5.6285 5.17316 5.439 5.2511C5.3075 5.30127 4.914 5.3792 4.907 5.3792C4.4765 5.45714 3.777 5.5 3.004 5.5C2.2675 5.5 1.5965 5.45714 1.1595 5.39333C1.1525 5.38602 0.6635 5.30808 0.496 5.22284C0.19 5.06649 1.29197e-07 4.76108 1.86343e-07 4.43424L1.91283e-07 4.40599C0.0075004 4.19313 0.197501 3.74549 0.204501 3.74549C0.525501 2.99294 1.524 1.50828 2.1875 0.911592C2.1875 0.911592 2.358 0.743545 2.4645 0.670482C2.6175 0.556502 2.807 0.499999 2.9965 0.499999C3.208 0.5 3.405 0.563808 3.5655 0.684608Z" fill="white"/>
</svg>
